<?xml version="1.0" standalone="no"?>
<!DOCTYPE svg PUBLIC "-//W3C//DTD SVG 20010904//EN"
 "http://www.w3.org/TR/2001/REC-SVG-20010904/DTD/svg10.dtd">
<svg version="1.0" xmlns="http://www.w3.org/2000/svg"
 width="1236.000000pt" height="835.000000pt" viewBox="0 0 1236.000000 835.000000"
 preserveAspectRatio="xMidYMid meet">

<g transform="translate(0.000000,835.000000) scale(0.100000,-0.100000)"
fill="#000000" stroke="none">
<path d="M2859 8081 c-32 -33 -37 -62 -13 -85 36 -37 84 3 84 71 0 37 -3 43
-21 43 -11 0 -34 -13 -50 -29z"/>
<path d="M6867 8023 c-15 -18 -18 -95 -4 -109 3 -4 0 -19 -8 -34 -14 -28 -14
-29 35 -60 28 -18 50 -35 50 -39 0 -4 -14 -15 -30 -25 -73 -42 -141 -137 -166
-228 -18 -66 -20 -226 -4 -293 43 -175 191 -324 449 -453 85 -42 99 -46 165
-46 56 0 83 6 130 27 66 30 76 32 76 14 0 -7 32 -43 70 -80 118 -114 335 -350
357 -388 12 -21 17 -42 13 -50 -11 -19 -4 -109 13 -192 8 -38 13 -76 10 -86
-2 -10 2 -25 11 -33 9 -10 11 -19 5 -25 -6 -6 -2 -19 12 -37 11 -14 39 -74 61
-132 l40 -105 -4 -134 c-2 -73 0 -128 4 -122 5 9 10 9 20 -1 20 -20 23 -15 24
36 0 26 8 72 18 102 21 70 31 170 17 170 -6 0 -11 17 -11 38 0 25 3 33 9 23 6
-10 11 -1 16 28 4 22 11 41 17 41 24 0 48 -23 48 -45 0 -32 16 -40 24 -11 6
23 10 24 133 30 267 15 765 22 781 12 5 -3 7 -17 5 -30 -5 -23 -33 -39 -74
-40 -8 -1 -23 -8 -32 -18 -10 -10 -25 -14 -39 -11 -13 3 -20 3 -17 -1 12 -13
74 -15 94 -2 38 25 70 27 88 6 9 -11 26 -20 36 -20 24 0 33 -13 25 -33 -3 -9
-29 -19 -65 -26 -62 -11 -96 -2 -122 33 -8 10 -20 14 -34 10 -22 -6 -32 -24
-14 -24 5 0 11 -6 14 -14 4 -10 -1 -13 -19 -11 -34 3 -40 12 -26 35 18 29 16
30 -40 25 -116 -11 -142 -15 -150 -27 -6 -10 -8 -10 -8 0 0 6 -4 12 -10 12 -5
0 -10 -6 -10 -14 0 -31 -99 -25 -108 6 -5 20 -29 19 -24 -2 2 -8 -4 -11 -18
-7 -11 3 -20 1 -20 -3 0 -5 -27 -9 -60 -9 -97 1 -132 -21 -70 -42 57 -20 35
-34 -68 -42 -35 -3 -77 -17 -126 -42 l-73 -37 -1 -62 c-2 -81 14 -159 40 -191
44 -56 155 -105 238 -105 29 1 32 2 17 11 -9 6 -15 14 -12 20 3 5 -1 6 -10 3
-11 -5 -14 -2 -9 9 4 12 14 15 37 10 18 -3 37 -9 42 -12 6 -4 25 -5 42 -2 36
7 33 24 -4 38 -22 8 -21 9 10 30 49 34 69 39 61 17 -5 -14 2 -10 24 11 17 17
32 36 32 43 0 9 5 10 18 3 20 -11 44 4 56 34 6 16 9 17 16 5 7 -11 11 -11 24
-1 9 7 13 17 10 22 -3 5 0 9 7 9 8 0 10 14 7 44 -4 35 -2 43 8 39 8 -3 14 -11
14 -18 0 -19 47 -12 63 8 17 23 107 28 107 6 0 -5 -4 -8 -8 -5 -4 2 -9 -3 -10
-12 -1 -9 -5 -39 -8 -67 -3 -29 -13 -55 -22 -63 -12 -9 -13 -15 -6 -20 6 -4
15 -23 18 -42 4 -19 10 -43 12 -52 7 -23 -22 -24 -34 -2 -8 14 -12 14 -45 -2
-32 -15 -87 -79 -87 -101 0 -5 -11 -34 -24 -66 -17 -42 -22 -71 -19 -105 l4
-47 -20 23 c-11 13 -17 30 -14 37 9 25 -6 17 -43 -22 -38 -42 -37 -18 2 29 15
19 21 37 19 60 -2 18 -4 41 -4 51 -1 20 -36 24 -45 5 -5 -10 -7 -10 -12 0 -8
17 -24 15 -24 -2 0 -8 -4 -17 -9 -20 -14 -9 -41 4 -41 19 0 8 -10 17 -21 20
-17 6 -19 9 -8 16 8 5 9 9 4 9 -6 0 -15 -4 -20 -9 -6 -6 -46 -13 -90 -16 -193
-14 -182 -11 -194 -61 -6 -24 -15 -44 -20 -44 -6 0 -13 -9 -16 -21 -7 -20 -10
-18 -51 22 l-44 43 0 -38 c0 -21 -5 -56 -12 -78 -9 -31 -9 -44 0 -59 7 -11 12
-52 11 -99 -1 -68 -3 -79 -15 -69 -10 8 -14 8 -14 0 0 -6 5 -11 11 -11 6 0 8
-7 5 -16 -5 -14 -4 -15 9 -4 12 10 15 10 15 -2 0 -8 -10 -19 -22 -25 -20 -9
-19 -10 11 -10 27 0 32 4 28 19 -3 10 -1 16 4 12 5 -3 9 -1 9 5 0 5 -7 14 -15
18 -10 6 -11 13 -5 23 8 13 10 12 10 -2 0 -10 6 -18 13 -18 7 0 13 -9 14 -20
1 -11 -2 -18 -8 -15 -5 4 -9 1 -9 -4 0 -6 6 -11 13 -11 6 -1 3 -6 -8 -13 -12
-7 -20 -21 -19 -34 1 -13 -6 -28 -14 -35 -13 -11 -14 -11 -7 2 14 22 15 42 4
59 -9 14 -10 14 -6 0 3 -9 -1 -26 -8 -37 -8 -10 -11 -22 -8 -26 3 -3 2 -6 -3
-6 -6 0 -15 5 -21 11 -11 11 -45 -12 -291 -195 -101 -74 -586 -406 -636 -435
-15 -9 -65 -39 -110 -67 -92 -58 -340 -201 -403 -234 -24 -12 -43 -26 -43 -30
0 -15 252 -23 372 -11 119 11 319 62 400 101 23 11 47 20 54 20 35 0 347 168
536 289 48 31 114 73 148 94 57 35 60 39 60 76 0 40 36 139 46 128 3 -3 1 -14
-5 -25 -20 -38 -11 -47 14 -17 l26 30 -20 -40 c-11 -23 -22 -57 -26 -77 -6
-31 -3 -38 21 -57 l28 -22 13 23 c7 13 12 37 13 55 0 32 14 52 56 80 19 12 22
21 18 46 -4 23 2 15 22 -28 27 -60 119 -191 152 -217 9 -7 3 5 -14 27 -43 56
-48 67 -33 64 27 -3 37 1 42 20 3 13 0 18 -12 16 -9 -1 -15 -10 -13 -21 2 -16
-1 -15 -17 6 -22 27 -28 45 -11 35 6 -3 10 -1 10 5 0 7 -6 10 -14 7 -7 -3 -19
0 -26 6 -10 10 -10 8 -1 -10 13 -26 14 -36 2 -29 -11 7 -53 97 -48 102 2 2 16
-5 30 -17 15 -11 27 -18 27 -14 0 3 34 -13 75 -36 42 -23 79 -39 82 -35 3 3
-15 25 -40 49 -26 24 -47 49 -47 55 0 22 15 12 30 -21 8 -18 24 -33 35 -35 11
-2 26 -16 34 -33 10 -23 17 -28 33 -23 16 5 19 2 14 -14 -8 -23 2 -54 15 -46
5 3 7 10 4 15 -4 5 -2 9 2 9 5 0 9 -16 10 -34 1 -32 -1 -34 -18 -23 -10 6 -26
26 -34 44 -18 37 -31 48 -40 33 -21 -34 98 -160 150 -160 14 0 36 -5 48 -12
30 -16 69 -19 84 -6 10 8 12 4 7 -19 -5 -24 -2 -31 21 -41 25 -12 26 -11 19
10 -6 20 -5 21 10 9 9 -7 16 -25 17 -40 l0 -26 10 24 c12 31 22 21 26 -26 1
-24 -1 -33 -7 -27 -17 17 -82 4 -87 -17 -8 -29 -21 -22 -17 8 2 16 1 20 -2 11
-4 -14 -10 -15 -30 -7 -14 5 -29 7 -34 4 -5 -3 -15 4 -24 16 -9 13 -19 18 -27
14 -7 -5 -17 -1 -25 9 -9 13 -17 15 -29 9 -14 -8 -12 -14 12 -48 16 -21 51
-62 80 -91 34 -34 54 -64 58 -86 3 -18 8 -141 10 -273 7 -439 9 -491 24 -509
9 -10 10 -16 2 -16 -6 0 -11 -13 -11 -30 0 -16 5 -30 10 -30 6 0 10 -7 10 -16
0 -9 -5 -12 -12 -8 -10 6 -10 4 -2 -7 15 -20 17 -84 4 -108 -11 -21 -5 -26 28
-22 17 3 15 -7 -8 -31 -23 -25 -11 -48 25 -48 65 0 71 30 19 84 l-37 38 8 66
c4 37 6 78 4 92 -5 42 -1 131 9 205 7 57 8 161 1 320 0 11 2 43 5 70 3 28 8
90 11 139 4 66 11 98 26 123 20 32 22 33 43 18 11 -8 31 -19 43 -24 30 -14 33
-20 35 -107 1 -44 5 -86 9 -94 6 -13 16 -178 22 -373 1 -51 6 -71 18 -77 23
-13 13 -60 -13 -60 -15 0 -18 4 -13 18 5 13 3 14 -6 5 -9 -9 -8 -16 3 -32 8
-12 18 -18 23 -13 5 4 5 2 1 -5 -4 -7 -1 -21 5 -31 14 -23 5 -57 -13 -46 -8 5
-9 2 -3 -12 15 -33 11 -93 -11 -149 -7 -18 -6 -18 9 -6 15 12 17 10 17 -19 0
-42 7 -36 13 10 3 27 8 34 21 32 12 -2 16 1 10 9 -4 7 -8 24 -10 38 -1 14 -5
41 -9 59 -5 21 -4 32 4 32 15 0 14 57 -1 62 -7 3 -5 13 7 31 16 25 16 29 1 52
-10 14 -14 34 -11 44 5 17 12 177 20 441 2 89 22 164 55 211 11 15 20 32 20
38 0 6 9 16 20 23 12 7 34 34 50 59 31 47 57 66 100 71 18 2 25 9 25 26 0 15
16 35 44 58 25 19 70 60 101 92 32 31 68 66 81 77 l24 20 -15 -20 c-33 -42
-20 -195 16 -195 7 0 15 -10 17 -22 2 -13 5 4 6 37 1 33 8 74 16 90 13 29 13
28 13 -33 0 -34 2 -66 6 -69 3 -3 6 1 6 10 0 22 17 22 24 -1 3 -9 10 -56 14
-103 5 -47 15 -94 21 -105 11 -17 12 -17 8 6 -3 14 -2 59 2 100 7 69 8 72 14
35 4 -22 12 -65 18 -95 28 -132 24 -195 -16 -254 -13 -20 -20 -36 -15 -36 5 0
13 8 19 17 5 10 12 15 15 12 11 -10 -43 -108 -66 -120 -13 -7 -24 -11 -26 -10
-2 2 -6 1 -8 -2 -3 -2 11 -16 30 -30 56 -44 77 -101 82 -225 8 -220 15 -842 9
-842 -3 0 -34 24 -69 54 -85 72 -138 102 -216 122 -117 30 -291 -3 -418 -79
-77 -46 -184 -162 -220 -238 -72 -151 -80 -354 -23 -569 233 -872 264 -1088
168 -1197 -29 -33 -30 -36 -13 -48 23 -18 169 -43 286 -51 110 -7 255 12 340
45 30 11 79 39 108 61 29 22 55 40 57 40 3 0 5 -20 5 -45 l0 -45 275 0 c151 0
275 3 275 6 0 4 -17 23 -39 44 -21 20 -47 59 -57 86 -18 47 -19 100 -22 1296
-1 687 1 1248 6 1248 4 0 17 -7 28 -15 10 -8 25 -15 32 -15 7 0 32 -9 55 -20
40 -19 46 -19 72 -6 15 8 48 21 73 28 31 9 51 22 61 40 9 16 24 28 34 28 11 0
37 16 60 35 22 19 44 35 49 35 4 0 8 9 8 19 0 11 10 27 21 35 13 8 23 29 25
48 2 18 7 40 10 50 9 31 -17 58 -58 58 -21 0 -38 4 -38 10 0 5 -15 8 -32 7
-21 -2 -44 4 -63 17 -40 28 -87 28 -120 0 -15 -13 -41 -26 -58 -30 -31 -7 -96
-51 -129 -89 -9 -11 -17 -16 -18 -12 -1 20 42 87 71 111 17 15 29 29 27 31 -2
3 -48 5 -101 6 -58 0 -97 5 -97 11 0 6 7 8 14 5 10 -4 13 -1 9 9 -3 8 1 14 10
14 8 0 18 -6 20 -12 4 -10 6 -10 6 -1 1 7 -8 18 -19 25 -24 15 -27 43 -4 34
12 -4 15 -2 11 9 -4 8 -2 17 3 20 5 3 11 -3 14 -12 3 -10 3 4 1 31 -3 28 -9
52 -13 55 -11 8 2 166 15 183 6 7 11 22 13 33 2 18 1 39 -3 145 -1 14 0 60 1
103 l2 78 58 -39 c31 -22 77 -49 101 -61 24 -13 64 -38 90 -58 120 -90 289
-211 316 -225 17 -8 61 -32 98 -52 87 -46 289 -119 387 -140 41 -9 89 -19 105
-23 41 -9 400 -12 415 -3 17 11 -23 39 -215 151 -185 107 -177 102 -350 212
-387 244 -963 659 -957 687 2 8 4 43 4 77 0 42 4 61 11 56 6 -4 8 0 5 8 -3 9
-14 53 -23 100 -9 46 -23 91 -31 100 -8 8 -14 21 -14 27 0 6 -9 26 -19 44 -11
18 -27 60 -36 93 -10 33 -20 65 -24 70 -4 6 -13 24 -19 40 -11 28 -11 28 3 11
8 -11 15 -26 15 -33 0 -7 5 -13 10 -13 6 0 10 -6 10 -14 0 -8 10 -16 22 -18
12 -2 28 -14 34 -26 6 -13 17 -29 24 -35 10 -9 11 -7 6 13 -6 22 -5 23 4 7 7
-10 14 -35 16 -55 2 -20 9 -50 14 -67 11 -33 10 -21 -6 119 -8 72 11 71 22 -2
l7 -47 14 39 c7 22 11 42 8 44 -3 3 -5 0 -5 -6 0 -7 -5 -12 -10 -12 -6 0 -10
6 -9 13 3 26 -2 37 -28 63 -27 25 -27 26 -5 19 37 -11 24 27 -15 45 -25 12
-35 26 -49 70 -9 30 -20 59 -24 63 -4 5 -5 28 -2 53 3 28 1 44 -6 44 -11 0
-28 -63 -24 -90 2 -11 1 -12 -6 -2 -4 7 -7 29 -5 49 2 29 -4 42 -27 66 -17 17
-30 34 -30 39 0 19 -2 24 -14 43 -14 21 -18 102 -7 110 4 2 6 -15 5 -38 -1
-23 4 -53 12 -68 7 -15 10 -29 7 -33 -4 -3 -2 -6 4 -6 6 0 13 -9 16 -19 2 -10
15 -24 27 -31 21 -11 22 -11 18 19 -3 21 0 31 8 31 9 0 9 7 -2 30 -18 36 -24
38 -17 8 3 -13 3 -20 -1 -17 -4 4 -8 18 -10 31 -3 30 -15 50 -26 43 -4 -2 -10
7 -13 20 -2 14 -1 28 4 30 4 3 3 18 -2 34 -13 36 -44 67 -54 52 -3 -6 -11 -11
-17 -11 -6 0 -6 6 2 15 11 13 10 14 -6 9 -17 -6 -16 -4 4 18 19 21 21 29 12
52 -13 36 -13 39 4 33 15 -6 30 18 21 33 -4 7 163 187 411 441 57 59 104 111
104 117 0 6 26 37 58 69 31 33 82 89 112 126 30 37 58 67 61 67 3 0 29 -31 57
-69 57 -76 118 -134 135 -128 21 7 37 51 37 102 0 60 -26 155 -69 249 -17 38
-31 72 -31 76 0 5 28 44 63 87 34 44 67 86 72 95 16 24 164 214 236 302 62 77
67 81 102 78 53 -4 110 29 134 77 17 34 19 48 10 100 -12 73 -50 123 -126 164
-130 71 -246 11 -239 -125 3 -54 1 -60 -35 -100 -21 -24 -75 -85 -120 -136
-162 -185 -330 -353 -347 -346 -56 22 -175 44 -265 48 -90 5 -111 3 -136 -11
-16 -10 -29 -22 -29 -27 0 -19 118 -118 172 -143 l57 -27 -42 -57 c-39 -52
-123 -148 -296 -335 l-66 -71 3 -144 c2 -138 2 -142 -13 -109 -9 19 -21 38
-28 42 -9 6 -9 10 1 17 16 9 11 86 -8 120 -14 28 -23 114 -10 106 17 -10 11 8
-20 62 -16 28 -63 84 -104 124 -97 95 -296 201 -473 253 -221 65 -449 115
-438 95 4 -5 23 -9 43 -9 28 0 33 -3 22 -10 -13 -8 -12 -10 3 -10 9 0 17 -4
17 -10 0 -5 5 -10 10 -10 6 0 9 5 8 12 -2 6 6 13 17 15 19 3 19 2 1 -5 -17 -7
-17 -10 -3 -24 9 -9 14 -18 11 -20 -2 -3 10 -13 28 -22 l33 -17 -35 3 c-19 1
-41 -2 -49 -6 -7 -5 -16 -5 -20 0 -9 13 -93 10 -118 -4 -25 -14 -73 -16 -73
-3 0 13 -113 8 -127 -6 -19 -17 -16 -33 4 -26 11 4 14 3 9 -5 -5 -8 5 -13 31
-14 62 -2 67 -3 100 -21 50 -27 86 -64 79 -83 -4 -10 0 -18 13 -21 12 -3 17
-11 14 -20 -5 -12 -28 -13 -152 -8 -121 6 -174 3 -309 -15 -90 -12 -166 -19
-170 -16 -3 3 0 6 6 6 7 0 12 9 12 20 0 11 5 20 11 20 6 0 9 7 5 15 -3 8 -1
15 5 15 6 0 9 7 5 15 -3 8 3 20 14 28 11 8 17 17 13 21 -4 3 2 12 12 20 21 15
5 32 -21 22 -10 -4 -13 -2 -8 6 5 8 2 9 -10 5 -10 -4 -20 -7 -22 -7 -3 0 -2
-4 1 -10 3 -5 0 -7 -8 -4 -25 9 -112 -73 -112 -106 0 -8 -5 -15 -12 -15 -7 0
-18 -6 -24 -12 -8 -8 -9 -13 -2 -13 9 0 10 -19 4 -70 -1 -3 -29 -16 -63 -30
-35 -13 -70 -28 -78 -34 -13 -10 -13 -9 -1 7 8 10 9 17 3 17 -6 0 -16 -9 -22
-20 -11 -21 -77 -57 -167 -91 -28 -11 -57 -26 -63 -34 -20 -24 -30 -17 -30 19
0 41 29 85 101 152 137 130 250 212 370 269 52 24 91 45 88 45 -18 0 -154 -57
-229 -96 -105 -56 -172 -107 -251 -192 -68 -72 -100 -133 -126 -238 -19 -77
-31 -62 -14 18 15 67 53 141 102 200 38 46 43 68 15 68 -12 0 -216 233 -216
246 0 4 45 4 100 0 55 -4 116 -4 136 0 40 7 60 38 50 77 -8 32 -57 80 -69 68
-12 -12 -39 -2 -56 22 -12 16 -22 19 -61 14 l-48 -6 -7 36 c-15 83 -62 109
-180 100 l-72 -5 -80 91 c-115 132 -332 359 -431 452 -58 55 -92 95 -107 129
l-22 50 -90 3 c-76 3 -92 1 -106 -14z m101 -177 c4 -21 -19 -12 -36 14 -11 17
-10 18 11 11 12 -5 23 -16 25 -25z m4598 -3 c5 -20 2 -30 -14 -44 -12 -9 -22
-24 -22 -33 0 -28 -17 -17 -25 17 -10 42 -7 58 13 74 26 19 41 15 48 -14z
m-4666 2 c11 -13 10 -14 -4 -9 -9 3 -16 10 -16 15 0 13 6 11 20 -6z m100 -141
c0 -9 30 -49 68 -88 40 -43 93 -116 131 -181 93 -158 129 -216 154 -248 22
-28 22 -29 2 -44 -11 -8 -48 -29 -83 -45 -118 -57 -220 -26 -352 106 -84 84
-103 127 -101 229 2 102 29 163 104 237 52 51 77 62 77 34z m320 -87 c0 -2
-10 -12 -22 -23 l-23 -19 19 23 c18 21 26 27 26 19z m145 -67 c10 -11 16 -20
13 -20 -3 0 -13 9 -23 20 -10 11 -16 20 -13 20 3 0 13 -9 23 -20z m3868 -35
c-3 -9 -8 -14 -10 -11 -3 3 -2 9 2 15 9 16 15 13 8 -4z m-3803 -30 c13 -14 19
-25 14 -25 -8 1 -50 50 -41 50 2 0 14 -11 27 -25z m3780 -3 c0 -4 -10 -13 -22
-21 -23 -14 -23 -14 -4 8 20 22 26 25 26 13z m-4050 -46 c0 -2 -8 -10 -17 -17
-16 -13 -17 -12 -4 4 13 16 21 21 21 13z m344 -45 c-5 -6 -33 31 -33 44 -1 6
8 -1 19 -15 10 -14 17 -27 14 -29z m3626 2 c-81 -89 -166 -178 -191 -198 l-24
-20 20 25 c25 32 228 240 233 240 3 0 -15 -21 -38 -47z m-3555 -82 c-6 -5 -44
41 -44 54 0 6 11 -3 24 -20 13 -16 22 -31 20 -34z m174 -41 c12 0 12 -3 3 -12
-9 -9 -5 -16 18 -30 17 -10 30 -24 30 -32 0 -8 3 -21 6 -29 3 -9 -9 -32 -32
-56 l-37 -42 -13 23 c-25 44 -28 52 -16 56 20 6 13 25 -18 56 -17 16 -30 33
-30 38 0 4 -5 8 -11 8 -8 0 -8 -5 1 -15 10 -12 10 -15 -4 -15 -9 0 -16 7 -16
15 0 12 -8 14 -37 9 -50 -7 -90 -18 -135 -38 -21 -9 -38 -14 -38 -11 0 3 18
13 41 21 24 10 44 26 49 40 5 13 20 25 32 28 106 20 123 21 158 4 19 -10 41
-18 49 -18z m2823 -95 c16 -14 25 -25 20 -25 -5 0 -17 9 -28 21 -14 15 -26 19
-49 15 -22 -4 -26 -3 -15 4 24 15 40 12 72 -15z m-2734 -30 c-3 -3 -9 2 -12
12 -6 14 -5 15 5 6 7 -7 10 -15 7 -18z m2861 6 c8 -5 -5 -7 -35 -4 -27 3 -51
7 -53 9 -9 8 75 3 88 -5z m-3873 -89 c46 -45 93 -81 139 -103 l70 -34 210 0
c189 0 210 -2 213 -17 4 -19 -47 -49 -115 -67 -70 -19 -200 -15 -266 8 -85 29
-161 76 -217 132 -59 59 -124 149 -107 149 1 0 34 -31 73 -68z m837 14 c20
-23 24 -32 12 -34 -12 -3 -12 -7 -2 -22 9 -15 9 -22 -1 -32 -9 -9 -12 -8 -12
8 0 41 -35 59 -122 61 -45 2 -83 5 -86 8 -13 12 19 27 72 32 31 3 56 10 56 15
0 18 56 -6 83 -36z m-328 24 c3 -5 -3 -10 -14 -10 -12 0 -21 5 -21 10 0 6 6
10 14 10 8 0 18 -4 21 -10z m-55 -30 c-8 -5 -17 -7 -19 -4 -3 3 1 9 9 14 8 5
17 7 19 4 3 -3 -1 -9 -9 -14z m132 -47 c10 -9 18 -19 18 -22 0 -4 -38 -8 -85
-9 -48 -1 -85 2 -85 7 0 8 56 25 129 40 3 1 13 -6 23 -16z m108 -66 c0 -6 10
-21 22 -34 l21 -23 -25 0 c-14 0 -33 9 -42 19 -10 10 -38 25 -64 32 l-47 13
35 4 c19 2 39 7 44 12 10 10 56 -9 56 -23z m1835 -36 c-6 -5 -25 10 -25 20 0
5 6 4 14 -3 8 -7 12 -15 11 -17z m75 -31 c0 -5 -4 -10 -9 -10 -6 0 -13 5 -16
10 -3 6 1 10 9 10 9 0 16 -4 16 -10z m-866 -12 c-3 -4 -12 -8 -20 -8 -8 0 -13
4 -10 8 3 5 12 9 20 9 8 0 13 -4 10 -9z m-44 -18 c0 -5 -4 -10 -10 -10 -5 0
-10 5 -10 10 0 6 5 10 10 10 6 0 10 -4 10 -10z m-1085 -20 c3 -5 -1 -10 -10
-10 -9 0 -13 5 -10 10 3 6 8 10 10 10 2 0 7 -4 10 -10z m3375 -60 c-29 -33
-56 -63 -62 -66 -16 -10 -20 3 -4 19 8 8 12 17 9 21 -3 3 2 8 11 12 9 3 13 11
10 16 -4 6 -1 9 7 6 7 -2 24 8 37 24 13 15 28 28 34 28 5 0 -13 -27 -42 -60z
m-1135 0 c3 -6 -1 -7 -9 -4 -18 7 -21 14 -7 14 6 0 13 -4 16 -10z m-1965 -36
c0 -2 -11 2 -25 8 -14 6 -25 15 -25 20 0 5 11 1 25 -8 14 -9 25 -18 25 -20z
m290 10 c0 -2 -9 0 -20 6 -11 6 -20 13 -20 16 0 2 9 0 20 -6 11 -6 20 -13 20
-16z m1756 -21 c-7 -7 -26 7 -26 19 0 6 6 6 15 -2 9 -7 13 -15 11 -17z m60
-34 c4 -8 1 -8 -14 0 -12 6 -24 16 -28 22 -4 8 -1 8 14 0 12 -6 24 -16 28 -22z
m908 -14 c-6 -16 -24 -21 -24 -7 0 11 11 22 21 22 5 0 6 -7 3 -15z m-39 -14
c-3 -6 -11 -11 -17 -11 -6 0 -6 6 2 15 14 17 26 13 15 -4z m445 -26 c7 -9 8
-15 2 -15 -5 0 -12 7 -16 15 -3 8 -4 15 -2 15 2 0 9 -7 16 -15z m-3354 -20
c-26 -19 -42 -19 -26 0 7 8 20 15 29 15 13 -1 13 -3 -3 -15z m2108 -16 c5 -4
-8 -6 -28 -5 -21 2 -42 8 -48 14 -13 13 61 5 76 -9z m36 6 c7 -8 8 -15 2 -15
-5 0 -15 7 -22 15 -7 8 -8 15 -2 15 5 0 15 -7 22 -15z m690 -39 c0 -2 -7 -7
-16 -10 -8 -3 -12 -2 -9 4 6 10 25 14 25 6z m-2645 -141 c-55 -62 -75 -80 -59
-52 16 27 107 127 112 123 2 -3 -21 -35 -53 -71z m1923 -15 c12 -21 22 -49 22
-61 0 -22 -1 -22 -20 -4 -14 13 -17 21 -9 26 16 9 3 43 -14 36 -8 -3 -14 4
-15 19 -3 35 10 29 36 -16z m-39 -95 c1 -5 -6 -2 -15 7 -10 9 -13 21 -8 29 5
9 9 8 15 -7 4 -10 8 -23 8 -29z m111 -57 c0 -4 -4 -8 -10 -8 -5 0 -10 5 -10
12 0 6 -10 23 -22 37 -19 21 -17 20 10 -3 17 -17 32 -33 32 -38z m-44 12 c22
-27 4 -24 -26 5 -17 16 -30 23 -30 16 0 -7 -5 -9 -11 -5 -8 4 -7 9 2 14 13 9
47 -6 65 -30z m-63 -27 c-7 -2 -19 -2 -25 0 -7 3 -2 5 12 5 14 0 19 -2 13 -5z
m376 -98 c0 -5 -6 1 -14 15 -8 14 -14 30 -14 35 0 6 6 -1 14 -15 8 -14 14 -29
14 -35z m-284 3 c7 -7 2 -8 -15 -3 -14 4 -29 12 -35 17 -7 7 -2 8 15 3 14 -4
30 -12 35 -17z m-51 -47 c3 -5 -3 -11 -14 -14 -20 -5 -35 5 -23 17 9 9 31 7
37 -3z m-24 -46 c0 -8 5 -15 12 -15 6 0 8 -3 5 -6 -8 -8 -37 14 -37 27 0 5 5
9 10 9 6 0 10 -7 10 -15z m25 5 c3 -5 1 -10 -4 -10 -6 0 -11 5 -11 10 0 6 2
10 4 10 3 0 8 -4 11 -10z m-5 -60 c0 -5 -9 -10 -20 -10 -11 0 -20 5 -20 10 0
6 9 10 20 10 11 0 20 -4 20 -10z m-20 -85 c10 -12 10 -15 -3 -15 -8 0 -17 7
-21 15 -3 8 -2 15 3 15 5 0 14 -7 21 -15z m-43 -97 c-3 -8 -6 -5 -6 6 -1 11 2
17 5 13 3 -3 4 -12 1 -19z m83 -53 c0 -14 -4 -25 -9 -25 -4 0 -6 11 -3 25 2
14 6 25 8 25 2 0 4 -11 4 -25z m260 -55 c0 -5 -7 -10 -16 -10 -8 0 -12 -5 -9
-10 4 -6 9 -42 11 -80 4 -70 4 -70 -21 -68 -21 2 -25 7 -26 38 -2 79 3 105 23
123 23 19 38 22 38 7z m-300 -66 c0 -57 -2 -65 -17 -62 -24 4 -28 45 -8 91 8
20 17 37 20 37 3 0 5 -30 5 -66z m31 -27 c-8 -8 -11 2 -10 34 l1 44 10 -34 c6
-23 6 -37 -1 -44z m-991 43 c0 -5 -4 -10 -10 -10 -5 0 -10 5 -10 10 0 6 5 10
10 10 6 0 10 -4 10 -10z m15 -12 c37 17 29 -8 -8 -26 -23 -11 -30 -11 -42 2
-22 22 -19 39 4 24 15 -9 25 -9 46 0z m1035 -28 c0 -5 -5 -10 -11 -10 -5 0 -7
5 -4 10 3 6 8 10 11 10 2 0 4 -4 4 -10z m-320 -12 c0 -5 6 -8 14 -8 23 0 57
-34 48 -48 -6 -9 -26 -10 -93 -1 -124 16 -130 17 -127 37 2 11 16 19 43 23 54
8 115 6 115 -3z m-1531 -38 c0 -10 -3 -8 -9 5 -12 27 -12 43 0 25 5 -8 9 -22
9 -30z m2155 21 c-5 -3 -12 -10 -15 -14 -4 -4 -9 -1 -13 8 -3 9 -2 13 4 10 6
-3 10 -1 10 5 0 6 5 8 11 4 6 -3 7 -9 3 -13z m-794 -1 c0 -5 -4 -10 -10 -10
-5 0 -10 5 -10 10 0 6 5 10 10 10 6 0 10 -4 10 -10z m-150 -9 c0 -5 -25 -15
-55 -21 -30 -6 -57 -16 -60 -21 -4 -5 -17 -9 -31 -9 -14 0 -22 4 -19 10 3 6
17 10 31 10 14 0 24 6 24 15 0 10 10 14 35 13 19 -1 38 2 42 5 10 10 33 8 33
-2z m53 2 c-7 -2 -21 -2 -30 0 -10 3 -4 5 12 5 17 0 24 -2 18 -5z m583 -15
c-2 -13 -8 -34 -13 -47 -10 -24 -10 -24 -15 -3 -4 15 -2 20 5 16 7 -3 4 1 -5
9 -21 17 -23 28 -4 21 7 -3 16 2 19 10 9 23 16 19 13 -6z m-1256 -8 c0 -5 -10
-10 -22 -9 -22 0 -22 1 -3 9 11 5 21 9 23 9 1 1 2 -3 2 -9z m335 -40 c-3 -5
-13 -10 -21 -10 -8 0 -12 5 -9 10 3 6 13 10 21 10 8 0 12 -4 9 -10z m1099 -16
c20 -20 21 -71 2 -71 -18 0 -41 51 -32 72 7 19 11 19 30 -1z m-992 -116 c-7
-7 -12 -8 -12 -2 0 14 12 26 19 19 2 -3 -1 -11 -7 -17z m1125 -10 c-3 -8 -6
-5 -6 6 -1 11 2 17 5 13 3 -3 4 -12 1 -19z m-335 -31 c1 -20 -1 -39 -5 -43 -4
-4 -7 14 -7 41 0 56 8 57 12 2z m-773 26 c-1 -5 0 -10 1 -13 1 -3 4 -16 5 -30
5 -37 10 -53 19 -70 4 -8 -2 -4 -13 9 -13 14 -21 37 -21 57 0 20 -5 34 -12 34
-9 0 -8 4 2 10 18 12 20 12 19 3z m657 -100 c-47 -107 -60 -126 -100 -147 -47
-24 -146 -35 -146 -16 0 8 -8 10 -22 7 -13 -3 -39 -2 -58 3 -39 9 -39 9 50 16
78 5 100 11 100 27 0 7 15 21 34 31 19 10 37 25 40 33 4 9 13 12 25 8 14 -4
26 3 45 28 14 19 26 42 26 51 0 10 6 27 12 39 l13 22 3 -22 c2 -12 -8 -48 -22
-80z m314 87 c0 -5 -5 -10 -11 -10 -5 0 -7 5 -4 10 3 6 8 10 11 10 2 0 4 -4 4
-10z m50 -19 c0 -12 -29 -35 -36 -28 -11 10 5 37 21 37 8 0 15 -4 15 -9z m102
-23 c-7 -7 -12 -8 -12 -2 0 14 12 26 19 19 2 -3 -1 -11 -7 -17z m-162 -24 c0
-8 -4 -12 -10 -9 -5 3 -10 10 -10 16 0 5 5 9 10 9 6 0 10 -7 10 -16z m-140
-114 c0 -53 -137 -209 -156 -179 -4 7 0 17 9 24 23 16 79 123 72 135 -4 6 -1
10 4 10 6 0 11 7 11 15 0 8 5 26 12 41 l12 26 18 -22 c10 -12 18 -35 18 -50z
m351 43 c14 4 30 1 39 -7 8 -8 26 -16 40 -18 19 -3 14 -7 -25 -16 -48 -11 -51
-10 -72 14 -13 14 -23 30 -23 37 0 8 3 7 9 -2 6 -9 18 -12 32 -8z m-149 -15
c-7 -7 -12 -8 -12 -2 0 14 12 26 19 19 2 -3 -1 -11 -7 -17z m-1052 -23 c0 -5
-5 -3 -10 5 -5 8 -10 20 -10 25 0 6 5 3 10 -5 5 -8 10 -19 10 -25z m890 -25
c-5 -29 -22 -79 -36 -111 -22 -48 -33 -61 -58 -68 -31 -8 -65 6 -38 16 19 7
68 64 64 75 -1 5 1 7 6 4 9 -6 42 56 42 79 0 16 22 67 27 62 2 -2 -1 -28 -7
-57z m-1493 34 c-3 -3 -12 -4 -19 -1 -8 3 -5 6 6 6 11 1 17 -2 13 -5z m1623
-16 c0 -16 -3 -19 -11 -11 -6 6 -8 16 -5 22 11 17 16 13 16 -11z m61 -17 c-9
-9 -11 -12 -4 -7 8 5 13 4 13 -2 0 -15 -32 -24 -44 -12 -7 7 -4 14 9 23 10 8
15 19 10 26 -5 10 -3 10 13 0 19 -12 19 -13 3 -28z m-1646 19 c-3 -5 -12 -10
-18 -10 -7 0 -6 4 3 10 19 12 23 12 15 0z m545 -36 c0 -8 -4 -12 -10 -9 -5 3
-10 10 -10 16 0 5 5 9 10 9 6 0 10 -7 10 -16z m863 -39 c-3 -9 -8 -14 -10 -11
-3 3 -2 9 2 15 9 16 15 13 8 -4z m-659 -21 c5 -14 4 -15 -9 -4 -17 14 -19 20
-6 20 5 0 12 -7 15 -16z m846 -108 c0 -40 -14 -61 -34 -53 -19 7 -21 52 -5 94
10 27 11 27 25 9 8 -11 14 -34 14 -50z m-1590 16 c0 -13 -12 -22 -22 -16 -10
6 -1 24 13 24 5 0 9 -4 9 -8z m1267 -19 c3 -7 -4 -9 -16 -6 -12 3 -18 9 -15
15 7 11 26 6 31 -9z m118 -63 c-4 -28 -9 -49 -12 -47 -2 3 -1 28 3 56 4 28 9
50 11 47 3 -3 2 -28 -2 -56z m-1295 -22 c15 -98 20 -114 30 -98 11 19 22 -38
11 -58 -11 -19 -10 -21 -35 63 l-15 50 0 -51 c-1 -79 -20 -166 -44 -201 -12
-18 -25 -33 -28 -33 -3 0 -9 33 -12 73 -4 39 -9 83 -12 97 -5 22 -4 21 9 -5
l14 -30 7 33 c4 17 13 32 20 32 15 0 25 22 25 56 0 14 5 34 11 45 5 11 7 30 3
42 l-7 22 -9 -24 c-4 -13 -11 -21 -14 -18 -8 8 15 77 26 77 4 0 13 -33 20 -72z
m560 -37 c0 -2 -3 -2 -6 2 -9 9 -36 -21 -29 -33 8 -14 -41 -61 -57 -55 -24 9
-19 51 8 79 15 14 30 23 35 20 5 -3 9 19 10 48 l0 53 19 -55 c11 -30 20 -57
20 -59z m-214 -19 c1 -67 -2 -110 -9 -114 -8 -5 -8 -23 1 -66 7 -32 12 -71 11
-88 l-1 -29 -11 30 -11 30 -6 -25 c-4 -14 -12 -24 -18 -22 -7 1 -12 -12 -12
-33 0 -24 -5 -38 -16 -42 -15 -5 -15 -8 -2 -17 39 -29 51 -96 17 -96 -15 0
-19 -5 -17 -21 2 -15 -3 -23 -16 -25 -16 -2 -18 4 -14 77 2 43 0 79 -4 79 -5
0 -8 6 -8 14 0 8 -7 16 -15 20 -14 5 -21 -18 -16 -48 1 -5 -5 -6 -14 -2 -9 3
-24 6 -33 6 -15 0 -15 2 -2 10 13 8 13 10 -2 10 -9 0 -20 -4 -23 -10 -10 -17
-25 -11 -19 8 5 13 4 14 -4 3 -8 -11 -14 -10 -36 4 -14 10 -26 21 -26 25 0 5
-9 6 -20 3 -14 -4 -20 0 -20 11 0 10 -4 15 -9 12 -13 -8 -20 40 -11 77 5 18 8
26 9 19 2 -28 31 16 31 47 0 41 15 40 18 0 3 -38 9 -49 27 -49 18 0 29 68 21
138 l-5 57 16 -35 c9 -19 16 -57 16 -85 0 -27 2 -39 5 -25 2 14 9 28 15 32 9
5 9 15 1 36 -6 16 -8 47 -4 73 4 24 8 38 9 30 0 -8 9 -23 19 -34 9 -12 11 -17
3 -12 -9 5 -12 3 -9 -6 3 -8 10 -13 16 -12 6 1 13 -11 17 -27 4 -17 10 -30 15
-30 13 0 20 29 9 36 -6 3 9 16 32 28 40 22 62 51 88 119 6 15 12 27 13 27 2 0
4 -48 4 -108z m870 83 c-11 -8 -27 -15 -35 -15 -9 1 -2 7 14 15 39 18 44 18
21 0z m-1582 -143 c19 -31 42 -77 52 -102 9 -25 24 -63 33 -85 12 -26 17 -65
17 -112 -1 -40 3 -73 8 -73 4 0 6 29 4 65 -2 36 -3 65 -1 65 1 0 19 -31 38
-70 26 -52 42 -71 60 -76 21 -5 24 -11 19 -28 -6 -18 -5 -19 10 -7 20 17 20
11 1 -25 -10 -20 -15 -23 -15 -11 0 9 -4 17 -10 17 -12 0 -13 -24 -1 -48 11
-22 30 -82 26 -82 -1 0 -18 7 -38 15 -35 14 -86 66 -88 88 -1 25 -10 61 -15
66 -3 3 -5 -3 -4 -14 1 -11 2 -31 1 -45 l-2 -25 -17 25 c-9 13 -27 35 -39 47
-18 21 -20 32 -16 84 4 44 2 64 -9 77 -28 33 -31 47 -4 21 19 -18 29 -40 33
-70 3 -24 13 -53 22 -64 15 -18 15 -19 -1 -6 -21 16 -24 -1 -4 -19 8 -6 17
-21 19 -33 3 -12 5 29 4 91 0 62 -4 107 -8 100 -8 -13 -24 -4 -24 15 -1 7 -6
11 -12 10 -25 -5 -56 71 -69 167 -2 14 -10 58 -17 97 -8 40 -11 75 -8 79 3 3
9 -13 13 -35 4 -23 23 -67 42 -99z m197 81 c13 -16 12 -17 -3 -4 -10 7 -18 15
-18 17 0 8 8 3 21 -13z m-242 -125 c1 -16 -3 -28 -9 -28 -5 0 -10 1 -10 3 0 1
-4 28 -10 60 -12 77 0 110 16 42 7 -27 13 -62 13 -77z m363 76 c-3 -17 -8 -22
-15 -15 -11 11 -3 41 11 41 5 0 7 -12 4 -26z m-28 -20 c4 -10 1 -14 -6 -12
-15 5 -23 28 -10 28 5 0 13 -7 16 -16z m911 -84 l-16 -31 -20 24 c-25 32 -25
45 0 23 19 -17 20 -17 30 3 6 11 12 35 13 53 l1 33 4 -37 c3 -22 -3 -50 -12
-68z m674 86 c6 -4 11 -12 11 -18 0 -7 -6 -6 -15 2 -9 8 -15 9 -15 2 0 -6 4
-13 10 -17 20 -12 -2 -33 -33 -31 -29 2 -32 6 -35 40 l-3 38 34 -5 c19 -2 40
-8 46 -11z m-225 -281 c5 -67 5 -69 -9 -35 l-13 35 -1 -42 c-1 -23 -6 -45 -12
-48 -10 -7 -29 -47 -33 -71 -1 -6 -18 -33 -38 -60 -19 -27 -45 -68 -57 -91
-11 -23 -26 -45 -33 -49 -10 -6 -11 -4 0 7 17 18 15 30 -4 22 -11 -4 -5 9 15
37 17 24 31 48 31 55 0 6 7 20 15 31 14 18 14 17 5 -11 l-10 -30 30 35 c27 32
29 41 29 110 0 46 -3 67 -8 55 -7 -16 -9 -14 -15 16 -3 20 -2 49 4 63 5 15 10
45 10 67 0 54 14 79 41 72 14 -4 19 -12 16 -23 -2 -10 -1 -24 4 -31 5 -9 9 23
10 81 l2 95 8 -110 c4 -60 10 -141 13 -180z m-464 255 c0 -5 -5 -10 -11 -10
-5 0 -7 5 -4 10 3 6 8 10 11 10 2 0 4 -4 4 -10z m370 -48 c0 -4 -4 -12 -10
-18 -5 -5 -19 -61 -32 -124 -22 -108 -23 -112 -26 -65 -5 64 16 181 35 200 16
16 33 20 33 7z m455 -32 c3 -11 10 -20 14 -20 8 0 34 -50 28 -56 -8 -9 -67 57
-67 75 0 27 17 27 25 1z m-747 -2 c17 -17 15 -28 -5 -21 -11 4 -14 3 -9 -6 6
-10 3 -10 -12 0 -16 10 -18 16 -10 26 13 16 21 16 36 1z m-1338 -27 c0 -11 3
-28 7 -38 3 -10 3 -15 -1 -12 -12 11 -25 69 -15 69 5 0 9 -9 9 -19z m1058 -17
c-3 -14 -5 -12 -10 9 -3 19 -2 25 4 19 6 -6 8 -18 6 -28z m131 -59 c0 -14 -4
-10 -14 14 -8 18 -15 38 -15 45 1 19 29 -38 29 -59z m109 -28 c-2 -17 -9 -32
-16 -35 -11 -3 -12 0 -4 14 7 13 6 31 -3 59 l-14 40 20 -24 c13 -15 19 -36 17
-54z m-219 13 c0 -10 -3 -8 -9 5 -12 27 -12 43 0 25 5 -8 9 -22 9 -30z m863
-6 c12 -41 2 -74 -22 -74 -17 0 -20 7 -20 48 0 27 3 52 7 56 12 12 27 0 35
-30z m-702 -16 c0 -14 -18 -9 -24 8 -11 28 -6 39 9 20 8 -11 15 -23 15 -28z
m296 -41 c-17 -63 -35 -103 -36 -76 0 24 43 155 47 143 2 -6 -3 -36 -11 -67z
m-540 -15 c-11 -10 -26 20 -25 53 l0 30 16 -38 c8 -21 12 -41 9 -45z m170 19
c0 -22 -4 -37 -8 -35 -5 3 -8 11 -8 19 0 8 -8 18 -17 24 -16 9 -16 11 7 20 14
5 26 10 26 10 1 1 1 -17 0 -38z m-760 3 c1 -12 -7 -26 -17 -33 -17 -10 -19 -8
-19 25 0 28 3 35 18 32 9 -2 17 -13 18 -24z m788 -36 c-14 -20 -15 -20 -9 -3
4 11 10 31 13 45 6 24 7 24 10 3 2 -13 -4 -33 -14 -45z m-404 11 c0 -11 -4
-17 -10 -14 -5 3 -10 15 -10 26 0 11 5 17 10 14 6 -3 10 -15 10 -26z m44 16
c-5 -11 -1 -14 12 -9 14 4 12 0 -6 -15 -39 -32 -53 -23 -30 20 13 22 32 26 24
4z m61 -5 c3 -5 1 -10 -4 -10 -6 0 -11 5 -11 10 0 6 2 10 4 10 3 0 8 -4 11
-10z m-450 -32 l-5 -33 11 28 c6 15 15 27 21 27 6 0 7 -7 4 -16 -3 -9 -6 -32
-6 -52 -1 -33 -2 -35 -14 -19 -11 14 -15 15 -19 5 -3 -8 -6 -5 -7 7 -3 27 1
68 7 78 9 15 12 6 8 -25z m685 0 c0 -6 -7 -5 -15 2 -8 7 -15 17 -15 22 0 6 7
5 15 -2 8 -7 15 -17 15 -22z m-598 -56 c-2 -18 1 -39 8 -47 15 -18 -1 -20 -19
-2 -11 10 -13 8 -8 -13 6 -24 5 -24 -8 -6 -15 20 -21 117 -8 129 14 15 40 -29
35 -61z m476 34 c-10 -7 -18 -24 -19 -37 0 -23 -26 -100 -29 -89 -1 3 -3 23
-6 45 -2 22 -6 52 -8 67 -4 18 0 28 12 33 9 3 18 1 20 -4 6 -17 22 -13 22 6 0
14 2 15 13 4 10 -10 9 -15 -5 -25z m-128 -8 c0 -26 -39 -95 -57 -102 -11 -5
-13 6 -11 51 3 49 6 59 27 70 30 14 41 9 41 -19z m218 21 c-2 -6 -8 -10 -13
-10 -5 0 -11 4 -13 10 -2 6 4 11 13 11 9 0 15 -5 13 -11z m-168 -27 c0 -15 -2
-15 -10 -2 -13 20 -13 33 0 25 6 -3 10 -14 10 -23z m140 -3 c6 -10 9 -19 6
-19 -9 0 -36 31 -36 41 0 14 18 1 30 -22z m868 12 c18 -15 22 -29 22 -75 0
-31 -4 -56 -10 -56 -5 0 -10 10 -11 23 -3 73 -5 86 -13 94 -5 5 -6 3 -2 -4 4
-8 2 -13 -6 -13 -9 0 -9 -3 2 -10 12 -8 12 -12 2 -18 -7 -5 -10 -16 -6 -25 3
-10 1 -17 -6 -17 -6 0 -8 5 -5 10 3 6 1 10 -4 10 -6 0 -11 -5 -11 -11 0 -8 -5
-8 -15 1 -9 8 -15 9 -15 2 0 -6 5 -14 10 -17 13 -8 3 -25 -13 -24 -8 0 -8 2 1
6 10 4 10 8 2 18 -9 10 -7 20 4 38 9 13 13 27 9 32 -5 4 -2 5 5 1 7 -5 12 -1
12 9 0 11 -5 15 -15 11 -8 -3 -15 -1 -15 5 0 8 32 26 51 28 3 1 16 -7 27 -18z
m-1956 -26 c-18 -36 -36 -49 -25 -17 6 16 33 52 39 52 2 0 -4 -16 -14 -35z
m413 25 c3 -5 2 -10 -4 -10 -5 0 -13 5 -16 10 -3 6 -2 10 4 10 5 0 13 -4 16
-10z m732 -12 c-3 -8 -6 -5 -6 6 -1 11 2 17 5 13 3 -3 4 -12 1 -19z m-1077
-50 c21 -46 28 -87 9 -56 -14 25 -39 98 -33 98 3 0 14 -19 24 -42z m517 10
c-3 -7 -5 -2 -5 12 0 14 2 19 5 13 2 -7 2 -19 0 -25z m563 15 c0 -5 -5 -15
-10 -23 -8 -12 -10 -11 -10 8 0 12 5 22 10 22 6 0 10 -3 10 -7z m555 -43 c-3
-5 -11 -10 -16 -10 -6 0 -7 5 -4 10 3 6 11 10 16 10 6 0 7 -4 4 -10z m-410
-20 c-3 -5 -11 -10 -16 -10 -6 0 -7 5 -4 10 3 6 11 10 16 10 6 0 7 -4 4 -10z
m35 -12 c0 -7 -4 -19 -9 -26 -7 -11 -10 -10 -15 3 -3 9 -4 21 0 26 8 13 24 11
24 -3z m-932 -38 c3 -7 0 -10 -7 -6 -7 5 -11 -1 -11 -13 0 -12 7 -21 15 -21 8
0 15 5 15 12 0 6 3 8 6 5 4 -4 1 -13 -5 -21 -7 -8 -10 -21 -6 -28 3 -7 -5 1
-19 17 -26 30 -33 55 -19 69 9 9 26 2 31 -14z m-321 -22 c-3 -7 -5 -2 -5 12 0
14 2 19 5 13 2 -7 2 -19 0 -25z m-267 8 c0 -2 -7 -7 -16 -10 -8 -3 -12 -2 -9
4 6 10 25 14 25 6z m2129 -48 c0 -27 -2 -29 -8 -13 -5 11 -6 26 -4 33 8 21 13
13 12 -20z m-1469 -19 c0 -5 -5 -7 -11 -3 -7 4 -10 1 -7 -7 3 -8 15 -19 27
-25 12 -6 29 -21 38 -33 21 -31 65 -25 73 9 5 22 11 25 41 22 44 -5 56 -17 36
-36 -13 -14 -16 -14 -21 -1 -7 20 -35 19 -43 -1 -3 -9 -1 -25 6 -36 17 -28 7
-34 -17 -10 -14 14 -24 17 -36 10 -13 -7 -29 4 -75 51 -44 45 -55 61 -42 64
28 8 31 7 31 -4z m89 -18 c12 -7 10 -14 -7 -36 -20 -25 -22 -26 -28 -9 -4 11
-9 24 -12 29 -3 6 1 4 9 -2 17 -17 37 -17 21 -1 -23 23 -11 37 17 19z m556
-11 c-3 -5 -11 -10 -16 -10 -6 0 -7 5 -4 10 3 6 11 10 16 10 6 0 7 -4 4 -10z
m381 -5 c-23 -17 -36 -19 -36 -6 0 11 18 19 40 20 11 0 10 -3 -4 -14z m-570
-24 c-3 -5 -24 -11 -46 -13 -45 -4 -41 8 5 15 17 2 34 5 38 6 5 0 6 -3 3 -8z
m284 5 c0 -3 -4 -8 -10 -11 -5 -3 -10 -1 -10 4 0 6 5 11 10 11 6 0 10 -2 10
-4z m-405 -16 c4 -6 -13 -10 -44 -10 -38 0 -51 -4 -51 -14 0 -8 5 -18 10 -21
6 -3 10 -11 10 -17 0 -7 -5 -7 -14 1 -11 9 -17 8 -29 -4 -9 -8 -21 -15 -28
-15 -6 0 0 10 15 21 15 12 25 27 22 34 -2 7 0 17 5 22 13 13 96 16 104 3z
m-51 -36 c4 -11 1 -14 -11 -12 -9 2 -18 9 -21 16 -6 18 25 15 32 -4z m400 0
c11 -28 6 -39 -9 -20 -12 16 -18 17 -27 8 -7 -7 -16 -12 -21 -12 -10 0 34 39
44 40 4 0 10 -7 13 -16z m826 -25 c0 -5 -9 -9 -20 -9 -13 0 -18 5 -14 14 6 15
34 11 34 -5z m525 -9 c3 -5 1 -10 -4 -10 -6 0 -11 5 -11 10 0 6 2 10 4 10 3 0
8 -4 11 -10z m-1520 -10 c3 -6 -1 -7 -9 -4 -18 7 -21 14 -7 14 6 0 13 -4 16
-10z m90 0 c3 -5 2 -10 -4 -10 -5 0 -13 5 -16 10 -3 6 -2 10 4 10 5 0 13 -4
16 -10z m-480 -30 c10 -11 13 -20 7 -20 -6 0 -16 9 -22 20 -6 11 -9 20 -7 20
2 0 12 -9 22 -20z m695 10 c0 -5 -2 -10 -4 -10 -3 0 -8 5 -11 10 -3 6 -1 10 4
10 6 0 11 -4 11 -10z m-30 -4 c0 -2 -8 -10 -17 -17 -16 -13 -17 -12 -4 4 13
16 21 21 21 13z m760 -52 c0 -8 15 -28 34 -45 19 -16 39 -43 45 -59 14 -41 5
-38 -13 4 -16 39 -84 95 -94 79 -4 -6 -8 10 -9 35 l-2 47 20 -24 c10 -13 19
-30 19 -37z m-65 26 c-3 -5 -11 -10 -16 -10 -6 0 -7 5 -4 10 3 6 11 10 16 10
6 0 7 -4 4 -10z m845 -30 c0 -5 -2 -10 -4 -10 -3 0 -8 5 -11 10 -3 6 -1 10 4
10 6 0 11 -4 11 -10z m-1493 -30 c-14 -11 -29 -20 -34 -20 -10 1 39 39 51 40
5 0 -3 -9 -17 -20z m602 3 c-3 -20 2 -34 10 -28 5 3 12 2 15 -3 7 -11 66 -3
66 9 0 13 14 11 36 -6 17 -14 17 -15 1 -9 -17 6 -18 5 -6 -15 8 -11 17 -21 21
-21 4 0 5 -7 2 -15 -4 -8 -2 -15 2 -15 5 0 10 -12 11 -28 1 -18 -6 -33 -23
-45 -13 -10 -24 -14 -24 -8 0 5 -9 13 -20 16 -11 4 -17 11 -14 17 4 7 2 8 -5
4 -9 -6 -9 -11 -1 -21 20 -24 -12 -36 -50 -17 -25 12 -35 13 -38 4 -7 -21 -20
-13 -31 20 -8 22 -8 34 -1 36 5 2 10 10 10 18 0 8 5 14 12 14 9 0 9 3 0 12
-15 15 -16 31 0 22 7 -4 8 -3 4 5 -4 6 -2 18 4 26 9 11 9 15 1 15 -6 0 -20
-15 -31 -32 -11 -18 -20 -28 -20 -21 0 14 49 73 61 73 5 0 8 -3 8 -7z m-1099
-23 c0 -5 -4 -10 -9 -10 -6 0 -13 5 -16 10 -3 6 1 10 9 10 9 0 16 -4 16 -10z
m-1410 -10 c-8 -5 -19 -10 -25 -10 -5 0 -3 5 5 10 8 5 20 10 25 10 6 0 3 -5
-5 -10z m-40 -19 c0 -11 -63 -52 -69 -45 -3 3 1 9 9 14 13 8 12 10 -2 10 -10
0 -18 -6 -18 -14 0 -14 -45 -49 -69 -52 -8 -2 -17 -6 -20 -11 -3 -4 -24 -16
-45 -26 -33 -15 -37 -16 -27 -3 8 9 20 16 27 16 8 0 14 5 14 10 0 6 5 10 10
10 6 0 20 9 32 20 12 10 25 17 29 14 4 -2 19 7 32 22 13 14 40 30 58 34 19 4
35 8 37 9 1 1 2 -3 2 -8z m2455 -96 c4 -36 4 -85 0 -108 -8 -43 -31 -97 -42
-97 -7 0 4 193 14 240 9 48 20 34 28 -35z m287 -12 c-3 -16 -7 -22 -10 -15 -4
13 4 42 11 42 2 0 2 -12 -1 -27z m835 1 c3 -8 12 -13 20 -10 18 7 59 -19 44
-28 -11 -7 -81 24 -81 36 0 5 -5 6 -12 2 -7 -4 -8 -3 -4 4 10 17 26 15 33 -4z
m-1077 -34 c6 -11 8 -20 6 -20 -3 0 -10 9 -16 20 -6 11 -8 20 -6 20 3 0 10 -9
16 -20z m60 -35 c0 -2 -9 -3 -19 -2 -11 0 -18 5 -15 9 4 6 34 0 34 -7z m1165
-5 c3 -5 2 -10 -4 -10 -5 0 -13 5 -16 10 -3 6 -2 10 4 10 5 0 13 -4 16 -10z
m-1040 -20 c4 -7 13 -7 26 0 24 13 25 2 2 -17 -10 -8 -12 -12 -5 -8 13 7 13 7
16 -52 2 -35 -1 -43 -15 -43 -12 0 -19 -10 -22 -27 -4 -28 -4 -28 -12 -5 -5
17 -13 22 -26 19 -24 -6 -24 2 -1 20 16 13 15 14 -5 8 -25 -7 -32 2 -39 51 -3
29 -2 34 9 26 10 -8 17 -5 31 13 20 27 31 31 41 15z m-138 -36 c-7 -7 -37 7
-37 17 0 6 9 5 21 -1 11 -7 19 -14 16 -16z m1538 -74 c3 -5 1 -10 -4 -10 -6 0
-11 5 -11 10 0 6 2 10 4 10 3 0 8 -4 11 -10z m-1355 -63 c0 -24 -3 -28 -10
-17 -8 13 -12 12 -29 -5 -15 -14 -18 -24 -11 -35 8 -13 10 -12 10 3 0 23 16
22 23 -3 3 -11 2 -18 -3 -15 -4 3 -10 -4 -13 -16 -4 -16 -2 -19 13 -14 14 5
17 2 13 -13 -4 -15 -14 -20 -45 -20 -29 -1 -38 3 -35 12 4 10 -1 12 -14 9 -10
-3 -19 -9 -19 -14 0 -5 -15 -8 -34 -7 l-34 1 5 46 c2 25 9 50 14 56 5 5 9 19
9 32 0 33 17 28 22 -6 3 -21 1 -28 -9 -24 -17 7 -18 -33 0 -40 9 -4 9 -8 -1
-15 -11 -7 -10 -10 5 -14 16 -4 19 1 21 28 4 61 6 73 14 68 4 -3 8 -11 8 -19
0 -27 73 10 76 39 1 6 2 15 3 19 3 22 21 -8 21 -36z m-79 -10 c-8 -8 -11 -7
-11 4 0 20 13 34 18 19 3 -7 -1 -17 -7 -23z m129 13 c0 -5 -5 -10 -11 -10 -5
0 -7 5 -4 10 3 6 8 10 11 10 2 0 4 -4 4 -10z m-370 -79 c0 -35 -12 -51 -36
-51 -29 0 -30 3 -2 40 25 35 38 38 38 11z m-70 -41 c0 -5 -7 -10 -16 -10 -8 0
-12 5 -9 10 3 6 10 10 16 10 5 0 9 -4 9 -10z m-963 -605 c0 -8 -4 -15 -9 -15
-4 0 -8 7 -8 15 0 8 4 15 8 15 5 0 9 -7 9 -15z m729 -504 c22 -10 57 -33 77
-51 45 -39 137 -176 172 -254 l25 -57 0 -375 0 -375 -45 7 c-48 7 -135 -2
-135 -15 0 -4 20 -21 44 -38 39 -28 46 -38 57 -90 18 -83 16 -264 -4 -346 -44
-179 -119 -261 -263 -288 -63 -12 -75 -7 -51 19 34 38 50 104 50 207 -1 119
-16 204 -84 465 -189 731 -194 753 -186 890 3 52 13 117 23 144 23 65 86 128
155 154 67 26 112 27 165 3z"/>
<path d="M7820 7133 c0 -13 29 -38 35 -31 3 3 -4 13 -15 23 -11 10 -20 13 -20
8z"/>
<path d="M8700 4749 c0 -5 5 -7 10 -4 6 3 10 8 10 11 0 2 -4 4 -10 4 -5 0 -10
-5 -10 -11z"/>
<path d="M9046 4794 c-4 -9 -4 -19 -1 -22 2 -3 7 3 11 12 4 9 4 19 1 22 -2 3
-7 -3 -11 -12z"/>
<path d="M8931 4744 c0 -11 3 -14 6 -6 3 7 2 16 -1 19 -3 4 -6 -2 -5 -13z"/>
<path d="M8992 4701 c-1 -36 1 -51 7 -42 7 11 9 11 14 0 3 -11 9 -9 21 6 22
28 21 56 -1 48 -15 -5 -16 -3 -5 8 12 13 18 38 6 26 -4 -3 -14 -2 -23 2 -14 8
-16 1 -19 -48z"/>
<path d="M8950 4683 c0 -22 2 -25 10 -13 13 20 13 40 0 40 -5 0 -10 -12 -10
-27z"/>
<path d="M8880 4561 c-15 -30 -12 -41 12 -41 27 0 58 28 51 46 -8 21 -51 17
-63 -5z"/>
<path d="M10330 3810 c-9 -6 -10 -10 -3 -10 6 0 15 5 18 10 8 12 4 12 -15 0z"/>
<path d="M10311 3653 c7 -12 15 -20 18 -17 3 2 -3 12 -13 22 -17 16 -18 16 -5
-5z"/>
<path d="M10280 3450 c0 -5 5 -10 11 -10 5 0 7 5 4 10 -3 6 -8 10 -11 10 -2 0
-4 -4 -4 -10z"/>
<path d="M2060 7914 c0 -8 5 -12 10 -9 6 3 10 10 10 16 0 5 -4 9 -10 9 -5 0
-10 -7 -10 -16z"/>
<path d="M2290 7886 c-20 -25 -8 -61 21 -64 33 -4 53 20 45 53 -7 29 -45 35
-66 11z"/>
<path d="M2420 7763 c-20 -7 -50 -34 -50 -44 0 -5 13 -23 29 -41 43 -50 47
-73 17 -108 -20 -24 -24 -38 -20 -68 11 -88 82 -119 143 -63 39 37 56 40 46 9
-18 -60 -17 -67 13 -98 38 -38 61 -38 96 -1 23 24 26 34 21 65 -4 21 -18 45
-32 56 -18 14 -24 26 -20 41 7 25 -15 74 -36 82 -7 3 -24 -1 -38 -9 -29 -16
-69 -18 -69 -3 0 6 8 24 17 40 16 27 16 32 3 57 -9 15 -29 31 -48 37 -17 5
-32 12 -32 15 0 16 -27 37 -40 33z"/>
<path d="M2930 7580 c0 -5 5 -10 10 -10 6 0 10 5 10 10 0 6 -4 10 -10 10 -5 0
-10 -4 -10 -10z"/>
<path d="M1400 7558 c0 -26 31 -78 46 -78 8 0 20 11 26 25 14 30 -1 50 -44 60
-21 5 -28 3 -28 -7z"/>
<path d="M2190 7554 c0 -8 5 -12 10 -9 6 3 10 10 10 16 0 5 -4 9 -10 9 -5 0
-10 -7 -10 -16z"/>
<path d="M3885 7550 c-20 -22 -14 -64 10 -74 16 -6 55 29 55 50 0 45 -34 58
-65 24z"/>
<path d="M1525 7513 c-22 -23 -26 -34 -22 -65 l5 -38 -493 0 c-271 0 -500 -3
-509 -6 -24 -9 -20 -17 19 -38 35 -19 75 -69 96 -121 17 -42 17 -239 0 -300
-8 -27 -55 -153 -106 -280 -274 -679 -335 -929 -322 -1305 3 -85 8 -162 12
-172 6 -14 1 -14 -34 4 -48 23 -105 18 -146 -14 -34 -26 -32 -38 8 -38 37 0
62 -13 62 -32 0 -7 8 -13 17 -13 28 0 95 -73 166 -180 93 -140 134 -188 203
-234 126 -84 352 -125 484 -87 108 31 246 119 328 210 l29 31 -5 -120 c-5
-131 -15 -174 -52 -229 -14 -20 -25 -38 -25 -39 0 -2 15 -4 33 -5 43 -3 110
-37 151 -76 28 -26 33 -36 29 -64 -6 -35 -22 -44 -24 -12 -1 11 -3 25 -4 30
-1 6 -3 13 -4 18 -1 4 -8 -2 -16 -12 -13 -17 -13 -22 -1 -35 16 -20 26 -70 15
-77 -5 -2 -6 -18 -2 -34 l6 -30 -154 0 c-148 0 -153 -1 -132 -18 30 -23 37
-67 23 -138 -17 -81 -59 -214 -69 -214 -21 0 -43 29 -44 60 -3 48 -28 51 -49
6 -17 -34 -17 -34 -60 -25 -41 10 -44 9 -70 -23 -41 -50 -39 -101 8 -144 40
-38 54 -41 89 -18 23 15 25 15 32 -2 4 -11 16 -26 26 -34 18 -15 18 -18 2 -73
-13 -44 -21 -57 -36 -57 -10 0 -19 -7 -19 -15 0 -8 -9 -15 -20 -15 -15 0 -20
-7 -20 -24 0 -14 -5 -28 -11 -31 -5 -4 -9 -19 -8 -33 4 -59 -1 -84 -16 -79 -8
4 -17 2 -21 -4 -3 -6 2 -13 12 -15 11 -3 27 -23 37 -44 15 -31 16 -52 11 -119
-4 -45 -11 -84 -16 -87 -14 -9 -38 16 -38 40 0 44 -103 73 -140 39 -47 -44
-45 -114 4 -144 17 -10 43 -19 57 -19 26 0 65 -42 55 -58 -2 -4 10 -6 28 -4
l33 4 6 -97 c13 -198 62 -323 167 -426 120 -118 294 -180 465 -164 98 9 105 9
132 0 16 -5 28 -1 45 18 13 13 39 32 58 42 53 28 132 88 169 131 50 56 98 167
117 269 10 50 22 94 28 98 8 6 7 10 -1 14 -22 8 -13 73 9 73 6 0 21 -12 35
-26 20 -22 29 -25 63 -19 l40 7 0 -388 c0 -228 -4 -412 -11 -448 -13 -75 -48
-148 -77 -161 -34 -15 -20 -30 26 -29 33 1 65 15 151 67 132 81 186 106 227
107 43 0 46 7 14 39 -16 15 -33 45 -39 67 -14 50 -15 344 -1 344 13 0 13 37 0
45 -6 4 -10 79 -10 192 l0 185 65 -4 c35 -2 68 -7 72 -12 4 -4 8 -31 8 -60 0
-29 6 -60 13 -69 8 -10 11 -28 7 -49 -8 -44 17 -77 66 -84 31 -5 38 -2 54 22
10 15 18 36 19 46 1 17 61 88 75 88 3 0 6 22 6 48 0 40 -5 55 -32 85 -28 32
-38 37 -78 37 l-45 0 0 70 c0 65 -10 90 -23 55 -10 -24 -78 -52 -145 -60 l-62
-7 0 42 c0 23 6 48 14 55 16 16 26 10 26 -17 0 -25 16 -23 24 5 9 35 7 45 -11
49 -15 3 -13 9 13 33 18 17 39 36 48 43 9 7 16 26 16 42 0 37 22 40 40 5 17
-32 43 -32 64 0 14 22 22 25 50 19 24 -4 48 0 80 15 25 11 46 23 46 26 0 3
-12 17 -27 30 l-28 23 23 25 c13 14 33 27 44 30 18 5 19 4 3 -19 -24 -37 -9
-48 31 -25 29 18 34 18 34 4 0 -8 16 -31 36 -50 l37 -34 -35 -29 c-69 -57 -57
-155 20 -178 35 -11 46 -10 71 2 77 41 52 213 -29 194 -7 -2 -15 3 -17 10 -3
7 5 12 21 12 29 0 76 19 76 32 0 4 9 8 20 8 11 0 20 -4 20 -10 0 -19 42 -120
50 -120 10 0 63 -44 102 -85 16 -16 41 -54 55 -83 l26 -53 -21 -37 c-17 -30
-19 -45 -12 -75 4 -21 14 -44 21 -53 10 -12 -12 -75 -131 -373 l-142 -358 -42
8 c-22 5 -50 8 -61 8 l-20 0 20 -9 c11 -5 34 -9 52 -9 17 -1 34 -5 37 -10 9
-14 -78 -222 -97 -233 -12 -6 -41 -2 -93 12 -73 21 -104 21 -104 1 0 -5 12
-11 27 -13 39 -4 63 -53 70 -141 3 -40 1 -96 -5 -124 -7 -29 -75 -208 -152
-400 -77 -191 -150 -373 -161 -403 -48 -123 -102 -220 -155 -279 -31 -33 -50
-61 -43 -61 7 0 56 12 110 26 l98 27 85 -27 c46 -14 88 -26 93 -26 5 0 7 29 5
64 -5 84 7 125 141 454 81 200 113 269 119 258 11 -20 42 -21 58 -1 16 19 6
45 -20 52 -31 8 -20 24 48 70 156 106 389 146 544 94 l66 -22 16 -72 c52 -238
63 -296 56 -307 -4 -7 -29 -18 -55 -24 l-47 -12 39 -12 c70 -21 91 -48 113
-140 50 -210 47 -307 -12 -365 -16 -16 -26 -32 -23 -35 3 -4 52 2 108 12 224
40 212 40 376 12 83 -14 160 -26 171 -26 16 0 6 14 -43 63 -47 45 -69 77 -84
117 -26 69 -94 370 -96 424 -2 36 1 41 22 42 14 1 30 9 37 18 15 21 16 18 40
-62 23 -81 37 -94 89 -82 22 5 54 10 71 10 23 0 34 6 42 25 17 36 15 55 -5 55
-17 1 -17 2 -1 13 9 7 20 30 23 51 5 22 11 33 15 26 4 -6 16 -13 26 -14 18 -3
19 -15 18 -257 0 -239 -2 -257 -23 -311 -14 -38 -36 -69 -62 -91 -21 -19 -39
-36 -39 -40 0 -3 222 -7 493 -10 510 -5 611 -13 688 -52 28 -15 29 -15 42 18
8 18 44 120 81 227 78 225 78 226 100 222 9 -2 16 4 16 13 0 20 16 19 24 -1 4
-10 15 -14 33 -12 30 3 30 7 20 71 -12 73 15 32 47 -73 38 -122 70 -196 119
-272 110 -173 302 -268 540 -268 271 1 490 165 584 438 36 105 38 249 5 333
-62 155 -221 238 -348 180 -35 -16 -124 -106 -113 -114 2 -2 23 -11 47 -22 81
-35 132 -126 132 -235 0 -161 -126 -402 -241 -460 -137 -71 -248 36 -307 295
-53 231 -62 396 -62 1086 l0 589 132 0 131 0 119 90 119 90 -251 0 -251 0 3
328 3 327 29 72 28 72 32 -24 c18 -14 53 -28 78 -31 l45 -6 12 45 c17 58 5
101 -30 105 -13 2 -39 10 -57 18 -62 29 -108 10 -377 -154 -55 -33 -112 -64
-127 -67 -25 -6 -28 -4 -28 16 -1 35 -24 117 -37 130 -18 18 -93 -63 -93 -101
0 -23 5 -30 19 -30 10 0 24 -7 31 -15 19 -23 -5 -45 -49 -45 -32 0 -39 -5 -56
-37 -11 -20 -19 -44 -17 -54 2 -10 -2 -27 -7 -38 -8 -14 -6 -31 5 -64 12 -36
24 -49 60 -68 24 -13 44 -27 44 -31 0 -10 -29 -39 -57 -59 -20 -14 -27 -29
-24 -56 1 -8 17 -13 46 -13 54 0 73 24 36 48 l-22 15 22 23 c50 53 49 58 49
-443 0 -322 -4 -476 -11 -498 -11 -31 -12 -31 -69 -27 -40 3 -68 -1 -93 -13
-42 -20 -56 -45 -26 -45 48 0 103 -49 143 -128 15 -29 15 -34 0 -63 -12 -25
-20 -30 -37 -24 -44 14 -85 17 -91 6 -4 -6 -26 -11 -49 -11 -44 0 -127 -32
-127 -49 0 -6 -32 -9 -76 -8 -61 1 -77 5 -85 19 -5 10 -15 18 -21 18 -20 0
-78 -50 -78 -68 0 -9 -7 -26 -15 -36 -8 -11 -12 -28 -9 -38 3 -11 1 -24 -4
-31 -13 -16 -22 -66 -28 -159 -4 -67 -3 -78 11 -78 9 0 14 -4 11 -9 -7 -11 16
-61 29 -61 14 -1 47 -32 61 -55 6 -11 21 -21 33 -23 11 -2 21 -7 21 -12 0 -5
24 -32 53 -61 45 -43 59 -52 94 -53 27 -2 56 -12 82 -30 29 -21 44 -26 53 -18
17 13 80 3 76 -12 -2 -6 -42 -30 -90 -54 -144 -71 -385 -122 -583 -122 l-75 0
0 39 c0 41 16 63 30 41 11 -18 40 -5 41 20 1 11 3 25 4 30 1 6 3 14 4 18 0 5
12 14 26 20 15 7 25 20 25 33 0 12 8 23 18 26 14 3 17 12 14 43 -5 54 -21 64
-76 52 l-45 -9 5 41 c5 33 1 48 -20 79 l-26 38 2 962 3 962 33 -3 c59 -6 93
46 55 83 -12 13 -26 15 -56 11 l-39 -7 7 53 c4 29 11 54 16 56 5 2 6 14 3 28
-8 32 30 108 71 141 19 15 31 31 29 35 -6 9 -667 11 -676 2 -4 -3 13 -25 37
-48 58 -58 73 -111 81 -280 l7 -139 -24 8 c-41 13 -70 8 -95 -16 -31 -29 -31
-69 0 -98 26 -24 29 -24 100 4 17 7 18 3 12 -51 -3 -32 -5 -63 -4 -69 5 -65 6
-915 1 -915 -5 0 -17 7 -27 15 -42 32 -163 8 -186 -36 -9 -15 -6 -18 19 -17
42 1 53 -9 38 -33 -10 -17 -9 -22 7 -34 13 -10 24 -11 37 -5 20 12 47 -20 78
-92 37 -86 37 -87 -9 -77 -29 7 -49 5 -74 -5 -30 -13 -86 -11 -86 2 0 3 9 16
21 28 21 22 21 23 3 53 -23 38 -65 49 -100 26 -23 -15 -25 -21 -19 -63 6 -43
4 -50 -20 -70 -27 -23 -45 -22 -45 4 0 8 -8 18 -17 21 -10 4 -30 20 -45 35
-35 36 -50 28 -46 -26 2 -22 -1 -43 -7 -45 -6 -2 -61 237 -131 570 -67 316
-142 671 -168 789 -38 176 -46 233 -46 315 0 55 5 107 10 115 7 10 10 11 10 2
0 -19 61 -52 95 -52 70 0 109 51 97 128 -5 36 -52 67 -89 57 -35 -8 -74 9 -98
45 -15 22 -25 28 -40 24 -39 -12 -63 -34 -70 -64 -4 -16 -14 -34 -23 -39 -9
-5 -57 -39 -106 -75 -49 -37 -90 -65 -92 -64 -1 2 -5 53 -8 113 -2 61 -5 116
-5 123 -1 19 -27 14 -43 -10 -13 -19 -18 -20 -45 -10 -20 6 -45 7 -69 2 -23
-5 -45 -5 -56 1 -27 15 -55 -5 -65 -48 -10 -42 -24 -51 -47 -27 -16 15 -16 17
6 28 31 16 34 49 7 75 -28 26 -40 23 -57 -12 -12 -24 -17 -26 -56 -21 -38 6
-47 3 -78 -25 -70 -61 -126 -50 -150 31 -10 33 -9 41 5 55 11 12 20 13 29 6
49 -39 116 -15 149 53 24 49 24 49 75 50 l52 2 5 -45 c5 -51 20 -65 58 -58 17
4 34 -1 51 -15 32 -25 60 -26 81 -2 21 23 31 68 18 77 -17 10 -3 25 25 25 29
0 33 26 4 35 -11 3 -23 4 -28 2 -13 -9 -72 22 -72 38 0 19 26 20 34 0 8 -21
40 -19 61 5 23 25 33 25 61 -1 26 -24 54 -19 54 9 0 31 19 42 48 26 22 -11 27
-11 38 4 10 14 17 15 46 5 34 -12 156 -11 177 1 6 4 11 20 11 36 0 23 5 31 25
36 18 4 25 13 25 29 0 13 4 27 10 30 5 3 10 14 10 23 0 9 9 28 19 41 17 22 26
24 74 22 47 -2 57 1 71 21 9 12 16 30 16 40 0 10 11 25 25 34 14 9 25 24 25
34 0 10 7 23 15 30 8 7 15 19 15 27 0 14 -37 72 -54 84 -4 4 -3 16 3 27 8 15
7 23 -5 33 -27 22 -37 49 -23 65 16 20 36 18 42 -5 10 -41 96 -31 143 16 28
28 34 41 34 76 0 23 -4 48 -8 55 -11 17 -70 33 -98 26 -17 -4 -30 1 -48 23
-14 15 -26 34 -26 41 0 6 -6 12 -14 12 -18 0 -33 -97 -17 -113 19 -19 12 -36
-20 -53 l-32 -16 6 61 c3 34 2 61 -2 61 -4 0 -20 -26 -36 -57 -29 -55 -32 -58
-68 -58 -32 0 -37 -3 -37 -22 0 -12 -4 -24 -9 -27 -5 -3 -18 -26 -30 -52 -20
-41 -25 -45 -54 -44 -50 3 -54 2 -90 -29 -33 -30 -65 -30 -47 -1 16 25 11 32
-18 25 -41 -9 -62 17 -27 33 19 9 25 19 25 41 0 24 7 33 33 46 18 8 37 25 42
37 7 17 23 25 58 32 26 4 47 12 47 17 0 5 -3 9 -7 9 -5 0 -14 4 -22 9 -10 7
-8 14 10 35 21 24 29 26 103 26 l81 0 -29 23 c-25 20 -28 28 -22 58 6 30 5 32
-7 17 -20 -25 -23 -23 -41 22 -18 46 -21 96 -6 105 15 9 12 41 -4 54 -12 10
-15 48 -15 183 l0 171 29 34 c40 45 40 73 0 73 l-30 0 0 161 c0 150 1 161 18
154 9 -4 26 -9 37 -12 48 -11 48 -12 33 -36 -14 -23 -13 -57 2 -57 22 0 40 14
40 30 0 18 51 45 77 41 7 -1 24 6 38 15 25 16 32 47 17 71 -21 33 -122 42
-155 14 -17 -15 -21 -13 -47 16 -30 33 -44 85 -55 206 -8 78 6 93 51 58 55
-43 127 -12 144 63 9 41 8 42 -44 78 -7 5 -7 17 1 38 12 32 8 60 -9 60 -5 0
-27 -14 -48 -31 -30 -24 -40 -40 -42 -67 -3 -38 -14 -47 -38 -32 -12 7 -12 16
4 67 26 84 75 171 111 199 38 29 49 30 35 5 -14 -27 -13 -38 5 -45 21 -8 55
15 55 36 0 10 4 18 8 18 19 0 92 -94 92 -117 0 -8 -11 -18 -25 -23 -28 -11
-55 -63 -55 -104 0 -30 34 -56 72 -56 16 0 28 -4 28 -9 0 -13 -46 -41 -68 -41
-33 0 -72 -65 -72 -119 0 -33 35 -61 76 -61 34 0 93 36 104 64 4 11 8 -127 9
-307 1 -296 0 -327 -14 -313 -37 37 -141 29 -180 -14 -10 -11 -16 -20 -14 -21
2 0 18 -3 34 -5 17 -3 45 -19 63 -37 29 -28 30 -32 15 -40 -10 -5 -29 -17 -43
-25 -14 -9 -34 -16 -45 -17 -15 0 -20 -7 -20 -25 0 -21 5 -25 30 -25 17 -1 38
-5 48 -9 23 -11 67 8 67 29 0 30 19 14 37 -32 14 -38 18 -75 18 -183 -1 -119
-3 -141 -24 -188 -13 -28 -38 -65 -56 -81 l-33 -28 67 -12 c36 -7 88 -23 116
-35 49 -22 49 -22 30 -42 -42 -42 -54 -69 -48 -115 6 -46 41 -88 74 -89 9 0
22 -7 30 -16 11 -13 6 -21 -34 -57 -40 -36 -47 -48 -49 -82 0 -22 3 -57 7 -77
7 -33 5 -38 -11 -38 -58 0 -87 -70 -38 -92 30 -14 54 -3 69 30 11 25 25 28 44
10 7 -8 45 -14 99 -15 48 -1 95 -3 106 -5 27 -5 44 27 28 52 -10 17 -7 26 28
72 22 29 40 58 40 65 0 6 -11 25 -25 41 -25 30 -25 31 -5 37 26 8 54 50 46 70
-3 8 -16 20 -29 26 -20 9 -28 7 -53 -16 -21 -20 -34 -25 -54 -20 -43 11 -44
22 -6 59 l37 35 62 -30 c68 -32 108 -37 127 -14 12 15 5 39 -10 30 -12 -7 -70
63 -70 85 0 13 7 20 20 20 25 0 37 26 23 49 -6 9 -8 31 -5 49 5 37 -13 43 -52
16 -14 -8 -27 -11 -30 -6 -3 5 -9 43 -12 83 -7 66 -6 73 8 61 9 -7 23 -10 31
-6 11 4 25 -4 40 -21 27 -33 56 -28 77 11 20 36 3 60 -41 57 l-34 -1 25 20 25
21 -50 -6 c-27 -3 -58 -9 -67 -12 -15 -6 -18 -1 -18 29 l0 36 40 -6 c34 -6 47
-2 80 21 22 15 38 31 35 35 -2 4 -1 27 4 51 l8 44 8 -50 c13 -82 52 -197 86
-250 22 -34 32 -61 30 -82 -2 -33 1 -35 44 -37 11 -1 49 -16 85 -34 96 -48
192 -65 330 -59 214 9 355 77 474 227 l28 35 -5 -150 c-4 -114 -10 -166 -26
-216 -26 -83 -87 -175 -154 -234 -50 -43 -156 -105 -207 -120 l-25 -7 22 23
c12 13 25 36 28 51 6 23 2 29 -24 42 -16 9 -38 16 -49 16 -10 0 -23 5 -30 12
-9 9 -12 9 -12 -1 0 -7 -9 -24 -20 -38 -12 -15 -20 -41 -20 -62 0 -31 4 -39
28 -47 26 -10 25 -11 -26 -22 -29 -7 -85 -12 -124 -12 -57 0 -69 3 -65 15 8
20 -42 58 -68 51 -11 -3 -38 1 -60 9 -39 14 -41 13 -63 -11 -13 -15 -27 -22
-35 -18 -31 18 -57 50 -57 71 0 13 -4 23 -8 23 -12 0 -32 -69 -25 -86 3 -10 0
-12 -10 -8 -22 8 -57 -14 -57 -36 0 -29 32 -42 57 -25 19 13 22 12 33 -15 12
-29 73 -90 119 -121 l25 -16 -30 -46 c-16 -26 -32 -47 -36 -47 -5 0 -8 -6 -8
-13 0 -7 -9 -20 -20 -30 -24 -20 -29 -83 -6 -74 7 3 22 0 32 -7 47 -32 91 -26
127 18 16 20 18 20 28 4 22 -38 92 -13 87 30 -2 15 6 45 17 68 l20 41 175 -1
c139 -1 191 3 250 17 101 25 261 104 339 167 l63 52 107 5 c58 3 124 9 146 13
24 5 -11 6 -90 3 -71 -2 -133 -7 -137 -9 -18 -11 -6 11 25 45 17 21 41 50 53
67 l21 29 36 -28 c52 -39 99 -57 152 -57 51 0 55 7 21 39 -35 33 -72 123 -93
226 -17 83 -18 163 -18 1080 l0 990 24 53 c13 29 37 63 52 77 16 13 29 26 29
29 0 3 -115 7 -255 8 l-255 3 -2 -200 -3 -200 -30 34 c-169 194 -281 279 -441
332 -82 28 -87 28 -326 29 -134 0 -255 1 -270 0 -16 0 -28 -5 -28 -11 0 -6 24
-36 54 -67 98 -104 120 -181 113 -387 -7 -173 -19 -277 -51 -415 -35 -155 -64
-259 -65 -237 -1 21 -43 23 -61 2 -27 -32 18 -62 49 -32 11 10 12 3 6 -37 -8
-62 -14 -76 -30 -76 -17 0 -45 -33 -45 -54 0 -9 12 -28 26 -42 17 -18 24 -35
22 -53 -3 -22 -9 -27 -45 -32 -52 -7 -61 -14 -45 -39 12 -20 7 -50 -9 -50 -5
0 -12 7 -16 16 -4 11 -13 14 -30 9 l-24 -6 5 248 c3 137 5 264 5 283 2 155
-18 585 -28 630 -21 91 -76 194 -126 238 -53 46 -56 65 -15 82 32 13 41 46 15
56 -16 7 -37 -11 -48 -39 -6 -16 -14 -18 -60 -12 -28 4 -61 11 -72 15 -11 4
-44 11 -73 15 -44 6 -51 9 -41 21 9 11 9 18 1 26 -15 15 -35 -1 -29 -24 5 -17
2 -19 -24 -16 -16 3 -29 1 -29 -3 0 -4 -15 -10 -33 -13 -19 -3 -58 -21 -88
-39 l-55 -33 -18 23 c-21 28 -36 29 -64 3 l-22 -21 0 41 0 40 -47 1 c-40 1
-43 2 -19 8 22 4 32 14 37 35 11 38 -4 56 -46 56 -51 0 -76 -45 -44 -79 l20
-21 -81 0 c-80 0 -81 0 -70 23 l11 22 -17 -22 c-14 -19 -26 -23 -71 -23 -36 0
-60 5 -70 15 -14 14 -17 14 -32 0 -23 -20 -71 -20 -71 0 0 8 9 19 20 25 21 11
28 50 8 50 -6 0 -19 -7 -28 -15 -15 -13 -22 -13 -63 1 -57 19 -90 7 -126 -49
l-25 -37 -270 2 -271 3 -13 29 c-13 26 -17 28 -55 22 -23 -4 -47 -15 -54 -26
-19 -27 -42 -25 -47 3 -16 78 -33 210 -29 225 2 10 -2 24 -10 30 -21 18 -31
-12 -17 -52 5 -17 12 -49 14 -71 2 -22 7 -64 12 -93 9 -66 2 -72 -79 -72 l-58
0 6 48 c7 56 4 60 -57 95 -26 15 -52 35 -58 45 -9 16 -11 16 -20 0 -6 -10 -17
-18 -24 -18 -7 0 -23 -21 -35 -48 -21 -44 -21 -49 -7 -77 9 -17 16 -34 16 -38
0 -5 -38 -7 -84 -5 l-84 3 -4 -65 c-3 -51 -13 -86 -50 -165 -25 -55 -49 -119
-53 -141 -6 -36 4 -115 22 -194 6 -22 4 -23 -9 -12 -12 9 -17 10 -20 1 -2 -7
-22 -2 -58 16 -30 16 -66 33 -80 40 -20 9 -25 18 -24 43 l2 32 -36 -35 c-53
-52 -72 -44 -72 30 0 56 -54 76 -75 27 -13 -30 -22 -28 -30 10 -7 30 -8 31
-21 13 -8 -10 -11 -29 -8 -42 4 -13 1 -30 -6 -38 -10 -12 -10 -21 -2 -38 25
-51 25 -67 -1 -76 -14 -5 -40 -13 -59 -16 -34 -6 -35 -6 -31 22 6 38 -17 59
-46 43 -24 -12 -25 -18 -11 -54 10 -28 3 -33 -62 -38 -24 -1 -43 4 -56 16 -20
17 -21 17 -41 -3 -21 -21 -23 -21 -92 -6 -66 13 -150 52 -164 75 -27 43 -34
-47 -10 -126 36 -122 106 -157 303 -152 l120 3 1 -222 c1 -192 -1 -223 -14
-223 -19 0 -19 -19 0 -26 11 -5 15 -23 15 -74 0 -78 -16 -108 -108 -203 -156
-161 -320 -224 -438 -167 -97 47 -188 189 -218 342 -20 98 -21 295 -1 414 16
100 75 312 105 380 38 88 146 226 213 275 25 18 53 29 73 29 26 0 32 3 27 15
-14 38 -126 60 -174 35 -10 -6 -19 -8 -19 -6 0 3 32 94 71 203 144 403 202
599 215 732 l7 63 66 -4 c90 -7 160 -39 219 -102 64 -67 94 -120 167 -294 33
-80 66 -147 73 -150 16 -5 16 95 -3 320 -15 189 -12 227 25 353 24 82 26 105
8 87 -25 -25 -39 -14 -32 24 5 28 3 38 -12 49 -26 19 -27 19 -59 -12z m1968
-1104 c35 -69 46 -164 25 -207 -16 -30 -14 -77 3 -88 5 -3 9 -52 9 -109 0
-116 -4 -123 -74 -110 -24 5 -47 1 -79 -13 -53 -23 -68 -42 -35 -42 26 0 72
-27 92 -56 10 -13 13 -34 9 -66 -4 -30 -1 -53 6 -62 9 -11 9 -19 0 -34 -7 -11
-9 -26 -6 -35 8 -21 47 -10 56 17 l8 20 12 -21 c16 -30 15 -141 -1 -125 -7 7
-20 12 -30 12 -10 0 -18 5 -18 10 0 6 -11 3 -25 -6 -17 -11 -33 -14 -57 -8
-18 4 -42 7 -53 6 -23 -2 -75 60 -75 89 0 32 -19 30 -29 -3 -14 -51 -12 715 2
772 11 40 15 45 37 42 14 -2 45 -4 70 -5 25 -1 49 -6 53 -12 5 -6 7 -3 4 7 -3
9 3 24 13 33 11 10 22 26 26 37 9 30 26 17 57 -43z m-836 -54 c71 -21 129 -61
148 -101 14 -31 17 -55 12 -138 -6 -120 -25 -180 -77 -238 -60 -68 -129 -101
-345 -168 -254 -78 -337 -111 -415 -161 -80 -52 -160 -136 -194 -204 -85 -174
-69 -409 38 -571 20 -30 36 -60 36 -67 0 -21 -59 -72 -83 -72 -15 0 -22 -6
-22 -20 0 -11 -3 -19 -8 -17 -4 1 -20 2 -36 2 -22 0 -31 6 -41 30 -7 16 -10
39 -7 50 7 26 -21 50 -34 29 -6 -10 -9 -7 -9 12 0 15 7 32 15 39 20 16 19 26
-5 60 -19 27 -20 42 -18 252 l3 223 17 -50 c15 -42 17 -44 13 -15 -11 80 -18
110 -27 110 -5 0 -8 28 -6 63 l3 62 65 1 c37 0 97 11 140 24 75 23 131 61 220
150 19 20 55 52 80 73 45 38 45 38 14 33 -22 -3 -33 0 -42 14 -6 10 -19 18
-29 18 -22 -2 -113 38 -113 49 0 11 130 86 137 79 3 -3 11 1 17 9 20 27 116
53 185 49 58 -3 63 -2 58 17 -3 10 -1 19 4 19 5 0 9 -4 9 -10 0 -5 5 -10 11
-10 7 0 8 7 4 18 -7 17 -11 40 -14 76 -1 15 -6 17 -31 13 l-30 -6 0 72 c1 132
55 198 176 216 64 9 116 5 181 -14z m1311 -1 c7 -4 -19 -44 -28 -44 -6 0 -10
16 -10 36 0 33 2 35 18 23 9 -7 18 -14 20 -15z m1557 -15 c160 -60 296 -194
414 -410 l41 -76 0 -301 0 -301 -36 24 c-69 47 -154 58 -213 27 -47 -23 -49
-38 -9 -55 42 -18 105 -87 128 -141 38 -87 34 -191 -11 -310 -28 -77 -116
-169 -174 -185 -111 -30 -216 0 -294 84 -72 78 -94 230 -66 445 18 145 22 155
42 135 15 -16 70 -20 89 -7 6 4 13 14 17 22 4 8 11 22 15 30 17 30 32 60 32
65 0 2 -20 14 -45 25 -37 17 -48 18 -64 8 -11 -7 -23 -10 -25 -7 -3 3 6 58 21
122 26 109 40 136 58 107 11 -18 61 -11 81 13 33 37 51 80 37 84 -7 3 -13 11
-13 19 0 19 -20 18 -75 -6 l-47 -20 6 35 c18 94 36 279 36 365 0 85 -12 160
-35 213 -10 24 19 23 90 -4z m-3965 -309 c0 -5 9 -10 20 -10 28 0 25 -13 -9
-51 l-30 -32 -12 26 c-14 31 -4 77 16 77 8 0 15 -4 15 -10z m1260 -390 c0
-130 -3 -160 -14 -160 -9 0 -16 -18 -21 -57 -3 -32 -11 -74 -18 -93 -23 -70
-85 -116 -143 -105 -30 5 -34 3 -34 -15 0 -13 -7 -20 -18 -20 -10 0 -24 -6
-30 -12 -10 -10 -15 -10 -22 2 -5 8 -12 11 -17 7 -4 -5 -1 -12 6 -16 10 -7 11
-13 2 -30 -15 -28 -31 -27 -31 2 0 13 -9 32 -19 41 -30 28 -77 13 -106 -34
-28 -44 -45 -58 -45 -36 0 17 -17 21 -38 8 -9 -7 -3 -18 25 -45 21 -20 46 -42
56 -49 9 -7 19 -24 22 -37 2 -14 9 -29 15 -35 15 -15 -8 -36 -42 -36 -25 0
-29 3 -25 19 5 19 -25 61 -43 61 -13 0 -40 -42 -40 -62 0 -28 -35 -22 -75 13
-58 51 -88 149 -46 149 11 0 33 12 50 26 25 21 34 24 46 14 27 -23 37 -5 11
22 -13 15 -33 41 -42 58 -10 16 -26 30 -34 30 -36 0 -30 25 28 113 21 31 27
35 34 23 15 -26 57 -20 64 8 7 30 -3 49 -22 42 -22 -8 -6 19 24 41 l28 20 -4
-33 c-6 -47 18 -54 63 -20 42 32 43 40 8 70 l-27 23 49 28 c50 30 165 75 190
75 8 0 15 -7 15 -15 0 -8 10 -23 22 -35 58 -54 140 3 116 82 -10 34 -9 37 33
81 24 25 45 46 47 46 1 1 2 -71 2 -159z m-8 -342 c-18 -18 -25 52 -11 101 l14
46 3 -69 c2 -38 -1 -73 -6 -78z m-372 -227 c0 -12 -28 -41 -39 -41 -5 0 -14 7
-22 16 -9 11 -10 17 -1 23 17 10 62 12 62 2z m804 -93 c-9 -14 -24 2 -24 25 1
21 1 21 15 3 8 -10 12 -23 9 -28z m-1065 -157 c9 -6 10 -11 2 -15 -13 -8 -31
1 -31 15 0 11 11 11 29 0z m-203 -218 c-7 -7 -26 7 -26 19 0 6 6 6 15 -2 9 -7
13 -15 11 -17z m1301 -89 c-3 -3 -12 -4 -19 -1 -8 3 -5 6 6 6 11 1 17 -2 13
-5z m56 -1 c-7 -2 -21 -2 -30 0 -10 3 -4 5 12 5 17 0 24 -2 18 -5z m215 -116
c9 -7 9 -13 1 -24 -18 -21 -3 -28 62 -26 33 0 57 -3 53 -8 -3 -5 -12 -9 -20
-9 -8 0 -14 -6 -14 -14 0 -7 -7 -19 -15 -26 -13 -11 -20 -11 -40 0 -23 12 -28
11 -53 -13 -28 -27 -66 -35 -77 -17 -10 15 -25 12 -19 -4 4 -9 -6 -20 -25 -30
-42 -22 -68 -20 -76 5 -9 27 9 46 28 30 23 -18 92 55 100 107 6 35 11 41 35
44 28 4 39 1 60 -15z m-286 -47 c-5 -42 -18 -60 -44 -60 -17 0 -19 5 -13 30 4
18 3 30 -4 30 -16 0 -1 28 17 33 37 10 47 3 44 -33z m288 -140 c0 -5 -11 -10
-24 -10 -13 0 -29 -7 -36 -15 -14 -17 -30 -20 -30 -5 0 12 49 39 73 40 9 0 17
-4 17 -10z m-133 -92 c-2 -36 -5 -43 -22 -43 -30 0 -33 44 -3 67 12 9 24 18
25 18 1 0 1 -19 0 -42z m-86 -81 c-8 -8 -11 -4 -11 14 0 33 14 47 18 19 2 -12
-1 -27 -7 -33z m-1862 -60 c7 -9 8 -24 2 -43 -7 -25 -4 -38 20 -73 16 -23 29
-44 29 -46 0 -2 -18 -9 -41 -15 -35 -10 -44 -9 -61 7 -20 18 -20 22 4 136 10
47 26 59 47 34z m1825 -133 c12 -31 6 -44 -19 -44 -44 0 -57 -59 -20 -90 19
-15 45 3 45 31 0 33 22 33 51 -2 29 -36 29 -49 0 -49 -10 0 -30 -10 -45 -21
-27 -21 -28 -21 -69 -4 -70 29 -81 32 -94 28 -7 -3 -13 -11 -13 -19 0 -17 -31
-19 -48 -2 -19 19 -15 26 32 47 24 10 50 29 56 41 10 19 9 24 -9 37 -30 20
-26 36 7 29 17 -3 40 2 62 14 43 24 56 25 64 4z m-1704 -54 c0 -5 -9 -10 -19
-10 -11 0 -23 5 -26 10 -4 6 5 10 19 10 14 0 26 -4 26 -10z m51 -51 c4 -13 7
-36 8 -51 1 -23 -3 -28 -24 -28 -14 0 -25 5 -25 11 0 7 -10 9 -25 5 -21 -5
-25 -3 -25 16 0 20 -1 20 -13 4 -15 -21 -44 -13 -52 15 -10 31 1 36 71 32 57
-3 65 -1 60 13 -4 10 -1 14 6 12 7 -3 15 -15 19 -29z m3576 -62 c2 -23 0 -52
-3 -65 -4 -21 -9 -23 -37 -17 -51 11 -62 27 -43 63 16 31 52 62 71 62 5 0 11
-19 12 -43z m-2197 -332 c0 -8 -6 -15 -14 -15 -17 0 -28 14 -19 24 12 12 33 6
33 -9z m-1772 -303 c3 -39 -1 -51 -19 -67 l-22 -20 6 62 c8 97 28 111 35 25z
m2423 -1064 c43 -205 80 -380 82 -388 3 -13 -19 -15 -160 -15 -89 0 -163 2
-163 6 0 3 5 10 12 17 8 8 9 15 2 22 -6 6 -24 -4 -52 -29 -35 -32 -118 -69
-130 -57 -1 2 71 188 160 414 90 225 164 409 166 407 2 -2 39 -171 83 -377z
m829 -1039 c0 -10 -5 -19 -11 -19 -6 0 -9 7 -5 15 3 8 1 15 -5 15 -6 0 -7 5
-4 10 9 15 25 2 25 -21z m1510 -139 c0 -5 -2 -10 -4 -10 -3 0 -8 5 -11 10 -3
6 -1 10 4 10 6 0 11 -4 11 -10z"/>
<path d="M3331 6174 c-34 -28 -35 -56 -3 -81 23 -19 36 -16 66 14 20 20 26 35
24 57 -4 43 -43 47 -87 10z"/>
<path d="M2502 6184 c-26 -18 -31 -81 -7 -90 28 -11 62 5 75 36 11 26 10 33
-5 50 -22 24 -34 25 -63 4z"/>
<path d="M2600 6060 c0 -5 5 -10 10 -10 6 0 10 5 10 10 0 6 -4 10 -10 10 -5 0
-10 -4 -10 -10z"/>
<path d="M2490 6004 c0 -9 5 -14 12 -12 18 6 21 28 4 28 -9 0 -16 -7 -16 -16z"/>
<path d="M2292 5898 c-16 -16 -15 -43 3 -58 20 -16 48 11 43 42 -3 26 -28 34
-46 16z"/>
<path d="M2392 5796 c-1 -10 -10 -25 -19 -32 -12 -8 -15 -16 -8 -23 18 -19 37
4 32 40 -2 19 -5 25 -5 15z"/>
<path d="M1724 4755 c-4 -9 5 -26 20 -42 26 -25 26 -25 26 -4 0 46 -34 79 -46
46z"/>
<path d="M5590 6010 c0 -5 5 -10 10 -10 6 0 10 5 10 10 0 6 -4 10 -10 10 -5 0
-10 -4 -10 -10z"/>
<path d="M5717 5703 c-13 -12 -7 -43 8 -43 16 0 38 34 28 44 -8 8 -28 8 -36
-1z"/>
<path d="M5423 5135 c-3 -9 -3 -18 0 -22 10 -10 37 6 37 22 0 20 -29 20 -37 0z"/>
<path d="M5538 5105 c-9 -21 -9 -29 5 -42 14 -14 20 -15 41 -3 30 16 40 38 25
56 -19 23 -58 17 -71 -11z"/>
<path d="M5740 5095 c0 -8 7 -15 15 -15 8 0 15 7 15 15 0 8 -7 15 -15 15 -8 0
-15 -7 -15 -15z"/>
<path d="M5500 5069 c0 -5 5 -7 10 -4 6 3 10 8 10 11 0 2 -4 4 -10 4 -5 0 -10
-5 -10 -11z"/>
<path d="M5418 4914 c-3 -5 -9 -23 -12 -41 -8 -37 8 -53 32 -29 14 14 14 19 1
48 -9 17 -18 27 -21 22z"/>
<path d="M5562 4888 c6 -18 28 -21 28 -4 0 9 -7 16 -16 16 -9 0 -14 -5 -12
-12z"/>
<path d="M5430 4751 c0 -11 4 -21 9 -21 18 0 21 18 6 30 -13 10 -15 9 -15 -9z"/>
<path d="M5410 4690 c0 -5 5 -10 10 -10 6 0 10 5 10 10 0 6 -4 10 -10 10 -5 0
-10 -4 -10 -10z"/>
<path d="M2452 5524 c-15 -11 -22 -25 -22 -50 0 -33 1 -34 38 -34 61 0 92 48
56 84 -20 20 -43 20 -72 0z"/>
<path d="M2680 5454 c0 -8 5 -12 10 -9 6 3 10 10 10 16 0 5 -4 9 -10 9 -5 0
-10 -7 -10 -16z"/>
<path d="M2405 5411 c-3 -5 -1 -12 4 -15 5 -3 11 1 15 9 6 16 -9 21 -19 6z"/>
<path d="M3440 1719 c0 -11 5 -17 10 -14 6 3 10 13 10 21 0 8 -4 14 -10 14 -5
0 -10 -9 -10 -21z"/>
<path d="M3365 1661 c-3 -5 -1 -12 5 -16 12 -7 30 2 30 16 0 12 -27 12 -35 0z"/>
<path d="M907 7504 c-8 -8 3 -34 14 -34 5 0 9 9 9 20 0 19 -11 26 -23 14z"/>
<path d="M2160 7396 c0 -25 -5 -57 -11 -73 -6 -15 -11 -49 -10 -76 0 -26 -7
-65 -15 -87 -16 -39 -13 -90 5 -90 16 0 61 41 61 56 0 7 -9 19 -20 26 -22 14
-25 43 -11 98 14 56 22 190 11 190 -6 0 -10 -20 -10 -44z"/>
<path d="M3450 7404 c-19 -50 -7 -74 30 -54 45 24 48 80 4 80 -17 0 -27 -8
-34 -26z"/>
<path d="M4590 7355 c-12 -14 -11 -18 1 -26 20 -12 34 -6 34 16 0 24 -19 30
-35 10z"/>
<path d="M4821 7296 c-8 -9 -11 -19 -7 -23 9 -9 29 13 24 27 -2 8 -8 7 -17 -4z"/>
<path d="M3843 7283 c-7 -3 -13 -16 -13 -29 0 -17 5 -24 20 -24 11 0 23 7 27
16 7 18 -16 44 -34 37z"/>
<path d="M4054 7265 c-4 -8 -4 -25 -1 -37 4 -12 1 -28 -4 -34 -17 -21 -1 -54
27 -54 39 0 51 38 28 94 -19 46 -40 59 -50 31z"/>
<path d="M3966 7243 c-4 -9 -2 -21 3 -26 14 -14 42 10 34 29 -7 19 -29 18 -37
-3z"/>
<path d="M1925 7241 c-3 -5 -1 -12 5 -16 12 -7 30 2 30 16 0 12 -27 12 -35 0z"/>
<path d="M2534 7216 c-27 -27 -34 -42 -34 -73 0 -54 26 -78 74 -69 62 12 96
75 76 137 -12 35 -17 39 -48 39 -25 0 -43 -9 -68 -34z"/>
<path d="M4146 7224 c-8 -21 -1 -28 19 -20 9 3 15 11 13 18 -7 19 -25 20 -32
2z"/>
<path d="M2694 7195 c-8 -21 2 -45 19 -45 8 0 20 7 27 15 10 12 10 18 0 30 -7
8 -19 15 -27 15 -7 0 -16 -7 -19 -15z"/>
<path d="M3022 7168 c-37 -49 -42 -92 -12 -108 26 -14 57 -5 70 20 5 10 9 42
7 71 -3 69 -21 74 -65 17z"/>
<path d="M4220 7175 c0 -8 4 -15 9 -15 5 0 11 7 15 15 3 9 0 15 -9 15 -8 0
-15 -7 -15 -15z"/>
<path d="M8952 7093 c-95 -22 -69 -25 33 -3 50 10 77 19 60 18 -16 0 -58 -7
-93 -15z"/>
<path d="M9168 7103 c7 -3 16 -2 19 1 4 3 -2 6 -13 5 -11 0 -14 -3 -6 -6z"/>
<path d="M9085 7083 c14 -35 11 -47 -14 -70 -21 -19 -22 -22 -5 -14 37 18 43
33 35 91 0 6 -6 10 -12 10 -7 0 -8 -7 -4 -17z"/>
<path d="M3920 7035 c-7 -20 -24 -42 -41 -52 -32 -19 -36 -34 -15 -52 17 -14
24 -5 60 73 29 66 29 66 17 66 -5 0 -15 -16 -21 -35z"/>
<path d="M8835 7060 c-13 -5 -14 -9 -5 -9 8 0 24 4 35 9 13 5 14 9 5 9 -8 0
-24 -4 -35 -9z"/>
<path d="M1895 7050 c-10 -17 12 -37 25 -24 8 8 6 15 -4 23 -10 9 -16 9 -21 1z"/>
<path d="M3260 7050 c0 -5 5 -10 10 -10 6 0 10 5 10 10 0 6 -4 10 -10 10 -5 0
-10 -4 -10 -10z"/>
<path d="M1760 7035 c0 -8 5 -15 10 -15 6 0 10 7 10 15 0 8 -4 15 -10 15 -5 0
-10 -7 -10 -15z"/>
<path d="M3763 7034 c-9 -23 11 -38 26 -20 13 16 7 36 -10 36 -5 0 -12 -7 -16
-16z"/>
<path d="M4450 7025 c0 -8 5 -15 10 -15 6 0 10 7 10 15 0 8 -4 15 -10 15 -5 0
-10 -7 -10 -15z"/>
<path d="M2510 6995 c0 -8 5 -15 10 -15 6 0 10 7 10 15 0 8 -4 15 -10 15 -5 0
-10 -7 -10 -15z"/>
<path d="M8905 6980 c-4 -6 -11 -8 -16 -5 -10 7 -69 -25 -69 -37 0 -14 13 -9
37 14 13 12 23 16 23 10 0 -7 16 -10 44 -8 48 4 66 12 66 27 0 12 -37 12 -45
-1 -3 -5 -11 -10 -16 -10 -6 0 -7 5 -4 10 3 6 2 10 -4 10 -5 0 -13 -5 -16 -10z"/>
<path d="M3243 6948 c-44 -49 -36 -92 18 -100 39 -6 69 23 69 67 0 56 -49 75
-87 33z"/>
<path d="M8721 6904 c-12 -27 -11 -28 4 -12 10 9 16 21 13 28 -2 7 -10 -1 -17
-16z"/>
<path d="M3598 6907 c-57 -19 -98 -83 -87 -137 19 -87 133 -96 178 -13 19 37
16 101 -6 131 -24 32 -35 34 -85 19z"/>
<path d="M4027 6904 c-8 -8 1 -24 14 -24 5 0 9 7 9 15 0 15 -12 20 -23 9z"/>
<path d="M2630 6884 c0 -9 7 -14 17 -12 25 5 28 28 4 28 -12 0 -21 -6 -21 -16z"/>
<path d="M2728 6879 c-19 -11 -24 -44 -9 -53 14 -9 39 3 46 22 9 23 -16 43
-37 31z"/>
<path d="M3334 6854 c-24 -35 -9 -78 27 -82 22 -3 29 3 42 35 18 46 8 73 -28
73 -15 0 -31 -10 -41 -26z"/>
<path d="M4047 6842 c-10 -10 -17 -24 -17 -30 0 -7 -9 -12 -21 -12 -11 0 -34
-13 -50 -29 -50 -51 -33 -131 27 -131 33 1 74 30 74 54 0 9 14 38 30 64 33 54
36 72 18 90 -17 17 -42 15 -61 -6z"/>
<path d="M3801 6706 c-10 -12 -6 -26 10 -26 11 0 19 29 10 35 -5 2 -14 -1 -20
-9z"/>
<path d="M4812 6708 c-15 -15 -16 -54 -2 -63 35 -22 77 38 44 62 -22 16 -27
16 -42 1z"/>
<path d="M3155 6656 c-37 -34 -46 -48 -40 -65 9 -31 44 -26 88 12 36 31 43 49
31 81 -10 26 -29 19 -79 -28z"/>
<path d="M4376 6675 c-12 -32 -7 -46 17 -43 16 2 22 10 22 28 0 29 -29 40 -39
15z"/>
<path d="M1986 6601 c-23 -24 -25 -31 -16 -55 12 -32 26 -30 52 5 17 22 17 28
5 52 l-14 26 -27 -28z"/>
<path d="M4211 6606 c-9 -10 -9 -16 -1 -21 17 -10 37 12 24 25 -8 8 -15 6 -23
-4z"/>
<path d="M3714 6595 c-9 -23 4 -47 23 -43 11 2 19 14 21 31 3 22 -1 27 -18 27
-11 0 -23 -7 -26 -15z"/>
<path d="M5656 6568 c-32 -37 -44 -58 -33 -58 15 0 70 36 82 53 41 58 0 63
-49 5z"/>
<path d="M2840 6585 c0 -8 5 -15 10 -15 6 0 10 7 10 15 0 8 -4 15 -10 15 -5 0
-10 -7 -10 -15z"/>
<path d="M1214 6536 c-9 -23 7 -38 26 -26 13 8 13 11 -2 26 -16 17 -18 17 -24
0z"/>
<path d="M1430 6521 c0 -5 5 -13 10 -16 6 -3 10 -2 10 4 0 5 -4 13 -10 16 -5
3 -10 2 -10 -4z"/>
<path d="M4676 6495 c-18 -28 -18 -56 0 -62 18 -6 54 30 56 57 4 36 -33 40
-56 5z"/>
<path d="M7010 6494 c-81 -12 -182 -39 -242 -63 -47 -18 -116 -89 -135 -139
-24 -64 -22 -163 5 -225 l21 -48 -24 -9 c-14 -5 -25 -16 -25 -25 0 -19 5 -19
35 1 23 15 24 14 80 -62 32 -42 91 -115 132 -161 l74 -83 -22 -40 c-13 -22
-26 -40 -31 -40 -4 0 -33 -25 -64 -55 -32 -30 -64 -55 -72 -55 -18 0 -83 -39
-99 -59 -12 -17 -11 -20 -48 129 -9 36 -21 69 -26 75 -5 5 -9 -175 -9 -463 l0
-473 -27 -23 c-28 -24 -25 -46 8 -46 10 0 19 -7 19 -15 0 -22 17 -19 54 10 18
14 45 25 60 25 15 0 78 -20 140 -45 179 -71 222 -80 381 -80 164 0 224 15 320
80 71 48 156 156 186 235 33 85 37 207 10 303 -44 162 -134 296 -426 636 -236
275 -296 373 -299 491 -2 105 52 145 194 145 71 0 93 -4 133 -25 61 -31 107
-82 107 -118 0 -49 -21 -102 -46 -118 -23 -16 -26 -16 -39 2 -8 11 -14 14 -15
7 0 -7 -9 -13 -19 -13 -20 0 -34 -14 -37 -37 -1 -7 1 -13 6 -13 4 0 10 -9 13
-20 4 -16 11 -19 35 -14 26 5 33 1 58 -33 81 -111 138 -150 234 -160 64 -6 68
-3 45 37 -11 20 -14 73 -15 243 0 207 1 221 21 249 12 16 20 30 18 32 -2 1
-53 8 -114 15 -60 6 -164 23 -230 36 -134 27 -201 29 -325 9z m255 -1268 c40
-86 55 -155 55 -244 0 -145 -32 -251 -87 -288 -57 -39 -241 -13 -322 45 -55
39 -89 163 -72 256 10 55 24 72 76 89 l38 13 -27 18 c-39 26 -134 46 -183 39
-35 -5 -43 -3 -43 10 0 11 13 18 42 22 25 4 51 17 64 31 12 13 28 21 36 18 8
-3 43 -7 79 -9 35 -2 71 -6 79 -10 12 -5 23 9 45 53 30 60 63 87 115 93 30 4
57 -31 105 -136z"/>
<path d="M6850 4915 c0 -8 2 -15 4 -15 2 0 6 7 10 15 3 8 1 15 -4 15 -6 0 -10
-7 -10 -15z"/>
<path d="M7222 4858 c-7 -7 -12 -16 -12 -20 0 -12 28 -10 36 3 10 17 -10 31
-24 17z"/>
<path d="M972 6458 c6 -18 28 -21 28 -4 0 9 -7 16 -16 16 -9 0 -14 -5 -12 -12z"/>
<path d="M1372 6363 c-41 -16 -32 -93 11 -93 41 0 67 42 51 84 -6 15 -36 20
-62 9z"/>
<path d="M4722 6288 c-7 -7 -12 -25 -12 -40 0 -21 6 -31 25 -38 34 -13 65 6
65 40 0 31 -17 50 -45 50 -12 0 -26 -5 -33 -12z"/>
<path d="M1391 6164 c0 -11 3 -14 6 -6 3 7 2 16 -1 19 -3 4 -6 -2 -5 -13z"/>
<path d="M1823 6155 c-7 -20 2 -29 21 -22 9 4 13 13 10 22 -8 19 -23 19 -31 0z"/>
<path d="M1391 6124 c0 -11 3 -14 6 -6 3 7 2 16 -1 19 -3 4 -6 -2 -5 -13z"/>
<path d="M1395 6081 c-3 -5 -1 -12 5 -16 5 -3 10 1 10 9 0 18 -6 21 -15 7z"/>
<path d="M4864 5995 c-23 -24 -25 -28 -12 -47 8 -12 20 -24 26 -26 19 -6 64
46 60 71 -5 33 -42 34 -74 2z"/>
<path d="M5010 5955 c0 -9 5 -15 11 -13 6 2 11 8 11 13 0 5 -5 11 -11 13 -6 2
-11 -4 -11 -13z"/>
<path d="M8818 5782 c-29 -6 -20 -20 20 -31 46 -13 79 -14 86 -2 14 22 -56 44
-106 33z"/>
<path d="M8995 5730 c11 -5 36 -9 55 -9 28 0 31 2 15 9 -11 5 -36 9 -55 9 -28
0 -31 -2 -15 -9z"/>
<path d="M780 5610 c0 -5 5 -10 10 -10 6 0 10 5 10 10 0 6 -4 10 -10 10 -5 0
-10 -4 -10 -10z"/>
<path d="M1190 5596 c0 -9 7 -16 16 -16 9 0 14 5 12 12 -6 18 -28 21 -28 4z"/>
<path d="M7865 5488 c-14 -21 -14 -23 0 -26 19 -4 45 15 45 34 0 22 -27 16
-45 -8z"/>
<path d="M4905 5481 c-3 -5 -1 -12 5 -16 5 -3 10 1 10 9 0 18 -6 21 -15 7z"/>
<path d="M4795 5420 c-7 -12 2 -30 16 -30 5 0 9 9 9 20 0 21 -15 27 -25 10z"/>
<path d="M590 5410 c0 -5 5 -10 10 -10 6 0 10 5 10 10 0 6 -4 10 -10 10 -5 0
-10 -4 -10 -10z"/>
<path d="M133 5374 c-6 -16 15 -37 29 -28 4 3 8 14 8 25 0 23 -28 26 -37 3z"/>
<path d="M4265 5359 c-4 -6 -5 -13 -2 -16 7 -7 27 6 27 18 0 12 -17 12 -25 -2z"/>
<path d="M8152 5358 c-21 -21 -13 -34 28 -45 48 -12 50 -9 8 14 -26 13 -29 18
-15 21 9 2 15 8 12 13 -8 12 -19 11 -33 -3z"/>
<path d="M8144 5297 c-7 -19 2 -37 19 -37 8 0 7 3 -2 9 -11 7 -11 9 0 14 11 3
11 7 2 17 -10 11 -14 10 -19 -3z"/>
<path d="M8944 5243 c-9 -16 -26 -34 -36 -41 -10 -7 -25 -26 -33 -42 -17 -33
-20 -74 -5 -65 6 3 10 -1 10 -9 0 -9 -6 -16 -14 -16 -7 0 -16 -9 -19 -20 -6
-25 8 -26 22 -2 10 16 10 15 12 -3 0 -11 7 -1 14 23 8 23 22 55 32 70 11 15
24 41 31 57 l12 30 -19 -22 c-31 -37 -35 -26 -7 22 29 49 29 62 0 18z m-43
-90 c-8 -3 -9 -8 -3 -12 6 -4 5 -11 -4 -19 -12 -11 -14 -10 -14 6 0 21 8 32
24 31 6 0 5 -3 -3 -6z"/>
<path d="M8976 5255 c-9 -26 -7 -32 5 -12 6 10 9 21 6 23 -2 3 -7 -2 -11 -11z"/>
<path d="M8240 5253 c0 -7 5 -15 10 -18 6 -3 10 -13 10 -21 0 -19 60 -107 68
-100 3 3 -9 26 -26 50 -18 24 -32 48 -32 53 -1 13 -30 48 -30 36z"/>
<path d="M852 5239 c2 -7 13 -17 23 -23 11 -6 39 -23 62 -38 61 -40 77 -34 18
6 -76 53 -108 70 -103 55z"/>
<path d="M8141 5229 c-1 -29 17 -88 31 -104 5 -5 4 4 -2 20 -7 17 -15 48 -20
70 -6 29 -8 33 -9 14z"/>
<path d="M8160 5246 c0 -2 7 -9 15 -16 13 -11 14 -10 9 4 -5 14 -24 23 -24 12z"/>
<path d="M4035 5189 c-10 -15 3 -25 16 -12 7 7 7 13 1 17 -6 3 -14 1 -17 -5z"/>
<path d="M6462 5178 c-17 -17 -15 -28 7 -28 16 0 31 18 31 36 0 9 -27 3 -38
-8z"/>
<path d="M8832 5157 c-25 -26 -29 -62 -8 -70 17 -7 26 1 26 21 0 8 -6 12 -15
8 -19 -7 -20 10 -2 21 12 7 31 43 23 43 -1 0 -12 -10 -24 -23z"/>
<path d="M1142 5128 c2 -28 12 -36 22 -19 3 4 -1 17 -9 27 -14 18 -14 17 -13
-8z"/>
<path d="M8368 5134 c-3 -5 -1 -20 4 -34 6 -14 12 -20 14 -14 6 15 -11 60 -18
48z"/>
<path d="M8618 5133 c7 -3 16 -2 19 1 4 3 -2 6 -13 5 -11 0 -14 -3 -6 -6z"/>
<path d="M8770 5099 c0 -5 5 -7 10 -4 6 3 10 8 10 11 0 2 -4 4 -10 4 -5 0 -10
-5 -10 -11z"/>
<path d="M8300 5073 c8 -12 22 -24 33 -27 14 -3 16 -2 7 9 -8 10 -7 16 7 24
10 6 13 11 8 11 -6 0 -16 -5 -23 -12 -8 -8 -15 -8 -28 3 -16 13 -16 12 -4 -8z"/>
<path d="M8710 5056 c0 -2 7 -7 16 -10 8 -3 12 -2 9 4 -6 10 -25 14 -25 6z"/>
<path d="M896 5035 c-28 -28 -13 -65 27 -65 15 0 18 6 15 37 -3 41 -18 51 -42
28z"/>
<path d="M1095 5040 c-4 -6 -14 -10 -23 -9 -46 4 -49 1 -48 -57 1 -48 5 -59
29 -80 33 -28 54 -30 87 -7 37 25 49 45 50 78 0 38 -10 52 -45 71 -33 17 -42
17 -50 4z"/>
<path d="M3998 5030 c-26 -20 -26 -22 -10 -40 9 -11 24 -20 34 -20 19 0 35 39
21 49 -6 3 -12 12 -14 19 -3 10 -11 8 -31 -8z"/>
<path d="M10456 5027 c3 -10 9 -15 12 -12 3 3 0 11 -7 18 -10 9 -11 8 -5 -6z"/>
<path d="M10577 4987 c-3 -7 3 -19 13 -25 14 -9 18 -8 16 4 -4 23 -22 38 -29
21z"/>
<path d="M4024 4935 c-3 -8 -3 -19 0 -24 10 -16 36 -1 36 20 0 22 -28 26 -36
4z"/>
<path d="M4252 4926 c1 -10 8 -17 13 -17 15 1 12 24 -3 29 -9 3 -13 -2 -10
-12z"/>
<path d="M4119 4889 c-8 -16 -8 -28 0 -45 13 -29 22 -30 51 -6 18 14 22 25 16
45 -8 34 -50 38 -67 6z"/>
<path d="M183 4844 c-8 -21 13 -42 28 -27 13 13 5 43 -11 43 -6 0 -13 -7 -17
-16z"/>
<path d="M4069 4792 c-64 -42 -79 -81 -49 -130 17 -28 25 -32 63 -32 78 0 104
65 58 143 -25 41 -34 43 -72 19z"/>
<path d="M1222 4688 c6 -18 28 -21 28 -4 0 9 -7 16 -16 16 -9 0 -14 -5 -12
-12z"/>
<path d="M4910 4610 c0 -5 5 -10 10 -10 6 0 10 5 10 10 0 6 -4 10 -10 10 -5 0
-10 -4 -10 -10z"/>
<path d="M8201 4573 c-1 -12 4 -25 9 -28 12 -7 12 2 0 30 -8 19 -9 19 -9 -2z"/>
<path d="M460 4560 c0 -5 5 -10 10 -10 6 0 10 5 10 10 0 6 -4 10 -10 10 -5 0
-10 -4 -10 -10z"/>
<path d="M1085 4540 c-3 -5 -1 -10 4 -10 6 0 11 5 11 10 0 6 -2 10 -4 10 -3 0
-8 -4 -11 -10z"/>
<path d="M7496 4457 c-23 -17 -17 -52 8 -52 29 0 44 31 25 50 -12 13 -18 13
-33 2z"/>
<path d="M1102 4384 c-29 -20 -30 -74 -2 -99 37 -33 99 1 100 56 0 50 -54 74
-98 43z"/>
<path d="M5287 4394 c-4 -4 -4 -11 -1 -15 8 -14 31 -10 38 6 5 15 -24 22 -37
9z"/>
<path d="M3790 4371 c0 -18 53 -81 68 -81 6 0 12 11 12 25 0 17 -6 25 -17 25
-9 0 -27 10 -40 22 -13 12 -23 16 -23 9z"/>
<path d="M4977 4362 c-30 -33 -14 -72 29 -72 30 0 66 49 53 73 -13 23 -61 22
-82 -1z"/>
<path d="M5202 4354 c4 -21 22 -23 26 -1 2 10 -3 17 -13 17 -10 0 -15 -6 -13
-16z"/>
<path d="M5633 4353 c-7 -2 -13 -14 -13 -24 0 -31 54 -22 58 9 3 22 -14 28
-45 15z"/>
<path d="M714 4319 c-9 -15 133 -149 157 -149 24 0 4 34 -38 64 -27 19 -54 44
-60 55 -17 28 -50 44 -59 30z"/>
<path d="M134 4235 c-8 -20 4 -35 27 -35 14 0 19 7 19 25 0 18 -5 25 -20 25
-11 0 -23 -7 -26 -15z"/>
<path d="M1390 4235 c0 -8 5 -15 10 -15 6 0 10 7 10 15 0 8 -4 15 -10 15 -5 0
-10 -7 -10 -15z"/>
<path d="M5019 4234 c-20 -25 2 -50 41 -46 26 2 31 -1 27 -15 -17 -62 -17 -72
1 -82 25 -13 49 3 67 47 19 43 13 62 -17 62 -28 0 -42 9 -51 33 -8 21 -50 22
-68 1z"/>
<path d="M5708 4233 c-15 -10 -29 -29 -32 -47 -9 -42 24 -70 72 -62 48 7 62
23 62 67 0 33 -4 41 -26 49 -34 13 -44 12 -76 -7z"/>
<path d="M5582 4214 c-28 -19 -29 -60 -2 -67 23 -6 46 10 54 40 10 31 -23 48
-52 27z"/>
<path d="M966 4111 c-11 -18 6 -42 28 -39 29 4 29 42 -1 46 -11 2 -24 -1 -27
-7z"/>
<path d="M820 4100 c0 -5 5 -10 10 -10 6 0 10 5 10 10 0 6 -4 10 -10 10 -5 0
-10 -4 -10 -10z"/>
<path d="M8301 4053 c-8 -18 -8 -22 0 -17 7 4 2 -6 -9 -22 -11 -16 -23 -40
-26 -54 -5 -17 0 -14 14 13 25 46 33 48 16 5 -7 -18 -16 -42 -20 -53 -6 -16
-9 -17 -16 -5 -5 8 -12 11 -16 7 -4 -4 -2 -13 4 -19 15 -15 16 -72 2 -98 -7
-13 -7 -21 0 -25 6 -4 8 -15 5 -26 -4 -10 -1 -27 5 -36 8 -15 9 -13 4 10 -4
17 -2 27 5 27 6 0 11 -7 11 -15 0 -8 4 -23 9 -33 5 -9 16 -32 23 -49 15 -39
27 -43 20 -8 -2 14 -9 22 -15 18 -7 -4 -8 0 -3 13 16 37 18 54 9 54 -6 0 -10
14 -11 30 0 17 2 30 6 30 24 0 44 81 43 174 -1 22 4 45 11 53 6 7 9 14 7 16
-61 35 -66 36 -78 10z m-4 -305 c-3 -8 -6 -5 -6 6 -1 11 2 17 5 13 3 -3 4 -12
1 -19z"/>
<path d="M8670 4065 c0 -16 6 -19 55 -30 l30 -6 -30 25 c-34 29 -55 33 -55 11z"/>
<path d="M1040 4034 c0 -30 13 -44 41 -44 11 0 1 22 -25 55 -15 19 -15 19 -16
-11z"/>
<path d="M6743 4041 c-17 -11 -33 -17 -36 -15 -3 3 -35 -4 -72 -15 -37 -12
-80 -21 -95 -21 -27 0 -59 -25 -47 -36 3 -3 20 -9 39 -14 18 -5 73 -20 121
-35 81 -25 90 -26 106 -11 10 9 25 16 34 16 14 0 17 12 17 75 0 85 -8 91 -67
56z"/>
<path d="M677 4036 c-6 -16 16 -40 26 -29 4 3 7 15 7 25 0 21 -25 24 -33 4z"/>
<path d="M4781 4024 c-15 -11 -21 -23 -18 -36 8 -30 -12 -67 -64 -118 -56 -55
-69 -79 -59 -105 10 -27 29 -42 60 -49 42 -10 60 14 64 84 3 53 7 65 31 86 15
13 36 24 46 24 36 0 36 73 1 113 -19 21 -31 21 -61 1z"/>
<path d="M10523 4033 c-13 -2 -23 -8 -23 -13 0 -14 69 -30 93 -21 l22 8 -23 7
c-12 4 -22 12 -22 17 0 9 -8 10 -47 2z"/>
<path d="M8735 3995 c22 -19 46 -33 52 -30 7 2 20 -9 28 -25 9 -17 22 -30 30
-30 8 0 15 2 15 5 0 10 -74 86 -94 97 -21 11 -21 11 -2 -11 27 -30 5 -26 -24
4 -13 14 -28 25 -34 25 -6 -1 7 -16 29 -35z"/>
<path d="M380 3926 c0 -14 37 -32 46 -23 6 6 -25 37 -37 37 -5 0 -9 -6 -9 -14z"/>
<path d="M5378 3933 c7 -3 16 -2 19 1 4 3 -2 6 -13 5 -11 0 -14 -3 -6 -6z"/>
<path d="M4171 3880 c-16 -9 -6 -30 15 -30 15 0 20 25 6 34 -4 2 -14 1 -21 -4z"/>
<path d="M316 3825 c-22 -33 -20 -64 5 -91 18 -19 25 -20 54 -11 38 11 51 41
36 80 -11 28 -15 32 -52 41 -21 5 -30 1 -43 -19z"/>
<path d="M4287 3829 c-32 -18 -47 -62 -36 -102 5 -20 15 -40 22 -44 11 -7 102
-33 102 -30 0 1 10 21 23 43 29 55 28 89 -4 119 -28 26 -75 32 -107 14z"/>
<path d="M4103 3813 c-7 -3 -13 -13 -13 -24 0 -14 7 -19 25 -19 18 0 25 5 25
19 0 20 -17 31 -37 24z"/>
<path d="M3940 3690 c0 -5 5 -10 10 -10 6 0 10 5 10 10 0 6 -4 10 -10 10 -5 0
-10 -4 -10 -10z"/>
<path d="M6335 3659 c-9 -13 13 -30 35 -26 8 1 15 9 15 17 0 18 -40 26 -50 9z"/>
<path d="M4515 3642 c-32 -7 -45 -22 -45 -53 0 -36 28 -53 64 -39 65 24 48
106 -19 92z"/>
<path d="M3573 3625 c-28 -12 -33 -19 -33 -48 0 -19 8 -44 19 -56 18 -21 23
-22 55 -11 37 12 46 26 46 70 0 18 -8 33 -25 44 -29 19 -22 19 -62 1z"/>
<path d="M480 3620 c0 -9 39 -25 46 -18 2 3 -7 10 -21 16 -14 6 -25 7 -25 2z"/>
<path d="M5540 3610 c0 -5 5 -10 10 -10 6 0 10 5 10 10 0 6 -4 10 -10 10 -5 0
-10 -4 -10 -10z"/>
<path d="M4830 3574 c0 -9 5 -14 12 -12 18 6 21 28 4 28 -9 0 -16 -7 -16 -16z"/>
<path d="M4323 3548 c2 -7 12 -13 22 -13 10 0 20 6 23 13 2 7 -6 12 -23 12
-17 0 -25 -5 -22 -12z"/>
<path d="M4410 3540 c0 -5 5 -10 10 -10 6 0 10 5 10 10 0 6 -4 10 -10 10 -5 0
-10 -4 -10 -10z"/>
<path d="M3688 3513 c-19 -5 -25 -23 -9 -23 17 0 41 12 41 21 0 9 -4 10 -32 2z"/>
<path d="M7876 3494 c-7 -19 10 -44 29 -44 19 0 36 25 29 44 -3 9 -16 16 -29
16 -13 0 -26 -7 -29 -16z"/>
<path d="M5517 3494 c-14 -15 -6 -34 14 -34 14 0 19 5 17 17 -3 18 -20 27 -31
17z"/>
<path d="M9650 3485 c-7 -9 -20 -13 -29 -10 -12 3 -32 -12 -64 -49 -43 -50
-45 -55 -29 -69 26 -24 74 -40 82 -28 3 6 16 9 29 6 12 -2 30 0 39 4 9 5 29
14 45 20 30 12 38 48 12 57 -10 4 -15 20 -15 45 0 36 -2 39 -29 39 -16 0 -34
-7 -41 -15z"/>
<path d="M12 3449 c2 -6 8 -10 13 -10 5 0 11 4 13 10 2 6 -4 11 -13 11 -9 0
-15 -5 -13 -11z"/>
<path d="M4305 3438 c-27 -16 -35 -28 -35 -61 0 -17 9 -36 21 -46 15 -12 23
-32 26 -67 7 -84 49 -123 117 -110 43 8 67 32 96 94 27 56 21 95 -21 140 -22
24 -39 32 -63 32 -19 0 -50 7 -69 15 -43 18 -46 18 -72 3z"/>
<path d="M7050 3405 c-7 -9 -11 -18 -8 -20 3 -3 11 1 18 10 7 9 11 18 8 20 -3
3 -11 -1 -18 -10z"/>
<path d="M5392 3384 c2 -11 11 -20 22 -22 13 -3 17 1 14 14 -2 11 -11 20 -22
22 -13 3 -17 -1 -14 -14z"/>
<path d="M470 3358 c-17 -19 -18 -24 -6 -42 19 -29 52 -32 66 -6 14 26 8 45
-19 59 -16 9 -24 7 -41 -11z"/>
<path d="M664 3306 c-9 -36 4 -65 31 -72 30 -7 44 1 56 33 12 33 -12 63 -52
63 -22 0 -30 -6 -35 -24z"/>
<path d="M4148 3309 c-10 -5 -18 -15 -18 -22 0 -10 -13 -29 -60 -84 -14 -17
-12 -46 4 -69 8 -11 12 -30 9 -45 -4 -21 -1 -28 16 -34 13 -4 28 -1 37 6 10 8
18 9 22 2 4 -5 18 -16 30 -22 22 -12 27 -9 63 26 21 21 39 47 39 59 0 37 -30
122 -46 128 -8 3 -13 10 -9 16 3 5 1 19 -5 30 -12 22 -53 27 -82 9z"/>
<path d="M2914 3186 c-15 -12 -17 -18 -8 -33 15 -24 58 -24 62 0 4 18 -14 47
-27 47 -4 0 -16 -6 -27 -14z"/>
<path d="M7613 3090 c-25 -10 -30 -25 -10 -34 10 -5 10 -7 0 -12 -23 -10 -14
-21 17 -20 32 1 57 33 47 60 -7 18 -21 19 -54 6z"/>
<path d="M154 3055 c-7 -18 3 -35 22 -35 20 0 30 30 13 41 -20 12 -29 11 -35
-6z"/>
<path d="M3938 2989 c-22 -12 -24 -45 -3 -53 23 -9 47 22 35 45 -12 22 -10 21
-32 8z"/>
<path d="M4522 2964 c4 -21 22 -23 26 -1 2 10 -3 17 -13 17 -10 0 -15 -6 -13
-16z"/>
<path d="M490 2960 c-77 -22 -88 -35 -95 -108 -3 -39 1 -55 26 -95 16 -26 34
-45 39 -42 5 3 23 -3 41 -14 40 -24 77 -13 112 32 46 61 38 130 -20 183 -29
27 -70 55 -75 53 -2 -1 -14 -5 -28 -9z"/>
<path d="M2880 2912 c0 -5 8 -12 18 -15 9 -2 25 -8 35 -12 12 -5 17 -2 17 9 0
9 -6 16 -12 16 -7 0 -23 3 -35 6 -13 4 -23 2 -23 -4z"/>
<path d="M9946 2908 c-17 -54 -15 -60 12 -53 30 7 43 23 39 45 -3 19 -46 26
-51 8z"/>
<path d="M3096 2894 c-23 -22 -20 -53 7 -63 28 -11 45 -4 52 20 16 48 -25 78
-59 43z"/>
<path d="M46 2835 c-3 -9 1 -18 10 -22 19 -7 39 11 30 26 -10 16 -33 13 -40
-4z"/>
<path d="M8384 2778 c-16 -12 -35 -30 -42 -40 -7 -10 -22 -18 -33 -18 -10 0
-19 -6 -19 -13 0 -8 -13 -25 -29 -40 -31 -27 -31 -32 -9 -105 6 -22 15 -32 26
-30 11 2 16 -3 16 -14 -1 -10 2 -15 7 -12 5 3 9 1 9 -5 0 -7 8 -7 23 -2 12 5
49 9 82 10 42 1 64 6 72 17 6 8 19 14 30 12 12 -2 19 4 21 20 2 15 14 27 32
33 27 10 28 11 23 72 -3 35 -11 67 -19 73 -8 6 -14 16 -14 22 0 18 -61 42
-105 42 -28 0 -52 -7 -71 -22z"/>
<path d="M2626 2751 c-4 -7 -5 -15 -2 -18 9 -9 19 4 14 18 -4 11 -6 11 -12 0z"/>
<path d="M3400 2740 c0 -5 5 -10 11 -10 5 0 7 5 4 10 -3 6 -8 10 -11 10 -2 0
-4 -4 -4 -10z"/>
<path d="M135 2718 c8 -27 22 -44 30 -37 7 7 -18 59 -28 59 -5 0 -5 -10 -2
-22z"/>
<path d="M3130 2730 c-8 -5 -6 -11 4 -19 17 -14 71 -7 62 8 -8 12 -52 19 -66
11z"/>
<path d="M4410 2705 c-19 -14 -42 -25 -52 -25 -10 0 -21 -6 -24 -14 -3 -8 -15
-17 -28 -20 -16 -4 -25 -18 -34 -51 -6 -25 -16 -45 -21 -45 -4 0 -20 -9 -34
-20 -23 -19 -24 -23 -14 -57 12 -42 28 -56 72 -63 18 -3 34 -14 40 -27 6 -14
19 -24 35 -25 14 -1 33 -2 42 -3 9 0 20 -4 24 -8 12 -12 53 -8 61 7 4 7 27 23
51 35 l44 22 5 -20 c3 -12 11 -21 19 -21 23 0 32 32 29 97 -3 57 -1 62 19 65
24 3 28 27 6 38 -51 24 -55 28 -53 58 2 17 -1 34 -7 37 -5 3 -7 12 -4 19 8 20
-11 29 -65 31 -25 1 -53 5 -61 9 -9 4 -29 -4 -50 -19z"/>
<path d="M4046 2683 c-19 -26 -19 -26 3 -45 13 -10 32 -18 42 -18 11 0 23 -8
26 -17 16 -43 47 -43 73 0 24 39 25 60 4 81 -21 21 -40 20 -63 -3 -19 -19 -20
-19 -36 5 -19 30 -25 30 -49 -3z"/>
<path d="M381 2636 c-22 -23 -22 -25 -6 -50 30 -46 104 -22 89 28 -16 52 -47
60 -83 22z"/>
<path d="M2166 2584 c-7 -19 10 -44 30 -44 15 0 28 35 19 50 -10 16 -42 12
-49 -6z"/>
<path d="M3244 2589 c-49 -14 -74 -87 -42 -126 13 -16 82 -17 109 -3 16 9 49
59 49 75 0 10 -64 65 -75 64 -5 0 -24 -5 -41 -10z"/>
<path d="M2120 2544 c0 -8 5 -12 10 -9 6 3 10 10 10 16 0 5 -4 9 -10 9 -5 0
-10 -7 -10 -16z"/>
<path d="M2606 2551 c-21 -8 -11 -18 14 -16 8 1 23 3 33 3 9 1 17 7 17 12 0
12 -36 12 -64 1z"/>
<path d="M225 2500 c-7 -23 1 -40 20 -40 18 0 28 30 14 46 -16 19 -27 17 -34
-6z"/>
<path d="M3092 2478 c-19 -19 -15 -48 8 -48 26 0 37 27 18 46 -11 11 -16 12
-26 2z"/>
<path d="M7439 2470 c-5 -29 -2 -35 16 -35 26 0 79 -88 108 -180 22 -70 22
-74 22 -810 -1 -647 -3 -751 -17 -824 -22 -108 -57 -167 -121 -199 -55 -29
-51 -44 18 -61 108 -27 204 -4 264 64 l30 34 50 -33 c83 -56 140 -71 271 -71
107 0 119 2 175 29 69 34 139 101 180 170 l28 48 22 -71 c42 -130 103 -205
210 -255 103 -49 317 -74 345 -41 14 17 7 30 -18 30 -46 0 -117 156 -131 288
-7 65 -6 69 18 87 l26 18 -23 19 -23 18 1 639 c0 386 4 656 10 683 13 58 41
112 74 142 14 14 26 28 26 31 0 4 -25 10 -56 13 -68 7 -182 60 -330 153 -183
115 -281 149 -314 109 -13 -16 -4 -39 11 -29 29 18 89 -85 120 -204 17 -68 19
-113 19 -485 0 -386 -1 -409 -17 -402 -42 17 -95 17 -138 1 -53 -21 -57 -32
-12 -41 17 -4 49 -14 69 -22 47 -19 75 -75 89 -184 10 -72 9 -85 -7 -114 -10
-18 -37 -46 -61 -61 -24 -15 -43 -32 -43 -38 0 -22 40 -46 75 -46 42 0 43 -7
12 -93 -66 -181 -156 -248 -243 -182 -43 33 -109 167 -131 265 -14 65 -16 147
-14 610 1 294 5 551 8 570 8 47 45 120 77 149 35 33 33 41 -9 41 -76 0 -180
47 -375 170 -121 76 -197 110 -247 110 -24 0 -44 -4 -44 -10z m1011 -1556 c0
-31 -2 -35 -15 -24 -18 15 -19 32 -3 48 17 17 18 16 18 -24z"/>
<path d="M11140 2464 c-82 -18 -180 -64 -247 -114 -131 -99 -242 -332 -290
-610 -24 -132 -24 -516 0 -650 48 -280 156 -505 290 -609 195 -150 518 -176
748 -60 104 51 219 177 298 323 82 152 173 288 204 305 13 7 40 16 58 20 l34
7 -26 25 c-36 37 -91 45 -138 22 l-37 -19 8 51 c14 75 13 428 -1 525 -49 348
-165 585 -345 702 -99 64 -198 90 -356 94 -94 2 -155 -1 -200 -12z m265 -107
c75 -42 129 -149 164 -324 34 -165 41 -248 48 -513 14 -598 -65 -976 -220
-1057 -39 -20 -115 -20 -153 0 -131 68 -198 291 -224 737 -10 169 -7 436 6
518 5 33 6 33 24 17 32 -29 98 -30 150 -3 49 26 63 48 30 48 -34 0 -75 29
-104 74 -61 94 -67 209 -17 327 39 95 83 154 130 179 49 26 116 25 166 -3z"/>
<path d="M2977 2383 c-12 -11 -8 -23 8 -23 8 0 15 7 15 15 0 16 -12 20 -23 8z"/>
<path d="M560 2325 c0 -9 5 -15 11 -13 6 2 11 8 11 13 0 5 -5 11 -11 13 -6 2
-11 -4 -11 -13z"/>
<path d="M4551 2326 c-16 -19 -10 -56 11 -70 13 -8 22 -6 37 8 12 11 21 24 21
30 -1 33 -50 55 -69 32z"/>
<path d="M2060 2310 c0 -5 7 -10 15 -10 8 0 15 5 15 10 0 6 -7 10 -15 10 -8 0
-15 -4 -15 -10z"/>
<path d="M3140 2290 c0 -5 5 -10 10 -10 6 0 10 5 10 10 0 6 -4 10 -10 10 -5 0
-10 -4 -10 -10z"/>
<path d="M5755 2270 c-3 -5 -28 -9 -55 -8 -40 2 -54 -2 -70 -20 -12 -12 -32
-30 -46 -39 -22 -14 -25 -21 -19 -52 3 -20 7 -52 9 -71 4 -58 15 -82 36 -75
13 4 20 0 25 -14 3 -12 18 -21 39 -25 43 -8 116 3 116 18 1 6 8 -1 16 -16 18
-34 26 -36 18 -4 -4 16 1 31 18 49 56 62 78 96 78 121 0 14 -5 26 -11 26 -6 0
-9 6 -6 14 3 8 -9 27 -29 45 -19 17 -34 39 -35 49 0 9 -3 12 -5 5 -4 -8 -15
-9 -37 -2 -39 11 -35 11 -42 -1z"/>
<path d="M6654 2252 c3 -5 -3 -17 -14 -27 -11 -10 -20 -24 -20 -30 0 -7 -16
-33 -35 -58 -19 -25 -35 -48 -35 -51 0 -3 -11 -16 -25 -30 -29 -30 -32 -46 -7
-46 10 0 23 -5 29 -11 5 -5 30 -9 53 -7 51 4 72 27 52 58 -18 30 -16 36 38 90
52 52 62 83 33 98 -28 15 -75 24 -69 14z"/>
<path d="M4410 2224 c-11 -12 -10 -18 3 -32 16 -15 18 -15 33 0 19 18 12 48
-9 48 -8 0 -20 -7 -27 -16z"/>
<path d="M8348 2177 c-5 -43 0 -57 17 -57 34 0 37 82 3 88 -11 2 -17 -7 -20
-31z"/>
<path d="M8310 2180 c0 -5 7 -10 16 -10 8 0 12 5 9 10 -3 6 -10 10 -16 10 -5
0 -9 -4 -9 -10z"/>
<path d="M1541 2095 c0 -35 2 -37 11 -19 7 15 7 28 -1 40 -9 16 -10 12 -10
-21z"/>
<path d="M8290 2119 c0 -5 5 -7 10 -4 6 3 10 8 10 11 0 2 -4 4 -10 4 -5 0 -10
-5 -10 -11z"/>
<path d="M885 2090 c-4 -6 -3 -16 3 -22 6 -6 12 -6 17 2 4 6 3 16 -3 22 -6 6
-12 6 -17 -2z"/>
<path d="M1210 2075 c0 -8 7 -15 15 -15 8 0 15 7 15 15 0 8 -7 15 -15 15 -8 0
-15 -7 -15 -15z"/>
<path d="M150 2070 c0 -5 5 -10 10 -10 6 0 10 5 10 10 0 6 -4 10 -10 10 -5 0
-10 -4 -10 -10z"/>
<path d="M2955 1990 c3 -5 8 -10 11 -10 2 0 4 5 4 10 0 6 -5 10 -11 10 -5 0
-7 -4 -4 -10z"/>
<path d="M1360 1970 c0 -13 5 -18 15 -14 8 4 15 12 15 20 0 8 -7 14 -15 14 -8
0 -15 -9 -15 -20z"/>
<path d="M65 1941 c-3 -5 -1 -12 5 -16 5 -3 10 1 10 9 0 18 -6 21 -15 7z"/>
<path d="M4320 1884 c0 -9 5 -14 12 -12 18 6 21 28 4 28 -9 0 -16 -7 -16 -16z"/>
<path d="M1665 1830 c3 -5 8 -10 11 -10 2 0 4 5 4 10 0 6 -5 10 -11 10 -5 0
-7 -4 -4 -10z"/>
<path d="M1489 1814 c-16 -20 -1 -48 29 -52 29 -5 47 31 26 52 -20 20 -38 20
-55 0z"/>
<path d="M1347 1794 c-13 -13 -7 -24 14 -24 11 0 19 5 17 12 -5 14 -22 21 -31
12z"/>
<path d="M352 1738 c6 -18 28 -21 28 -4 0 9 -7 16 -16 16 -9 0 -14 -5 -12 -12z"/>
<path d="M4602 1639 c2 -7 10 -15 17 -17 8 -3 12 1 9 9 -2 7 -10 15 -17 17 -8
3 -12 -1 -9 -9z"/>
<path d="M510 1581 c0 -11 26 -22 34 -14 3 3 3 10 0 14 -7 12 -34 11 -34 0z"/>
<path d="M2457 1492 c-19 -23 -11 -42 18 -42 27 0 38 12 29 33 -9 24 -31 27
-47 9z"/>
<path d="M1155 1450 c3 -5 8 -10 11 -10 2 0 4 5 4 10 0 6 -5 10 -11 10 -5 0
-7 -4 -4 -10z"/>
<path d="M2560 1410 c0 -5 5 -10 10 -10 6 0 10 5 10 10 0 6 -4 10 -10 10 -5 0
-10 -4 -10 -10z"/>
<path d="M6662 1389 c2 -7 10 -15 17 -17 8 -3 12 1 9 9 -2 7 -10 15 -17 17 -8
3 -12 -1 -9 -9z"/>
<path d="M1604 1365 c-3 -8 1 -24 10 -37 16 -22 16 -22 16 15 0 37 -16 50 -26
22z"/>
<path d="M2200 1325 c-10 -11 -10 -19 -2 -27 15 -15 44 -2 40 19 -4 23 -22 27
-38 8z"/>
<path d="M1110 1314 c0 -9 5 -14 12 -12 18 6 21 28 4 28 -9 0 -16 -7 -16 -16z"/>
<path d="M1622 1275 c0 -16 2 -22 5 -12 2 9 2 23 0 30 -3 6 -5 -1 -5 -18z"/>
<path d="M2584 1239 c-19 -21 -19 -21 6 -18 14 2 26 12 28 22 5 23 -11 22 -34
-4z"/>
<path d="M1766 1215 c-10 -27 4 -46 25 -34 23 12 25 35 3 43 -21 8 -21 8 -28
-9z"/>
<path d="M3577 1191 c-15 -30 -15 -32 15 -61 35 -36 38 -36 72 -9 17 14 26 30
26 49 0 34 -2 36 -56 45 -39 6 -43 5 -57 -24z"/>
<path d="M2600 1145 c-19 -20 -21 -27 -10 -40 30 -37 90 -1 75 45 -9 27 -37
25 -65 -5z"/>
<path d="M2374 1026 c-11 -28 1 -51 27 -54 31 -4 53 20 44 48 -8 24 -62 29
-71 6z"/>
<path d="M880 1015 c0 -8 5 -15 10 -15 6 0 10 7 10 15 0 8 -4 15 -10 15 -5 0
-10 -7 -10 -15z"/>
<path d="M1420 1019 c0 -5 5 -7 10 -4 6 3 10 8 10 11 0 2 -4 4 -10 4 -5 0 -10
-5 -10 -11z"/>
<path d="M2536 964 c-7 -19 10 -44 30 -44 15 0 28 35 19 50 -10 16 -42 12 -49
-6z"/>
<path d="M6590 955 c0 -8 7 -15 16 -15 12 0 15 -6 10 -25 -7 -26 -1 -29 39
-25 69 7 40 80 -32 80 -23 0 -33 -5 -33 -15z"/>
<path d="M1630 920 c0 -5 5 -10 10 -10 6 0 10 5 10 10 0 6 -4 10 -10 10 -5 0
-10 -4 -10 -10z"/>
<path d="M1313 904 c-8 -22 15 -43 27 -24 13 21 12 27 -5 34 -9 3 -18 -1 -22
-10z"/>
<path d="M3380 835 c-7 -8 -23 -15 -36 -15 -13 0 -24 -3 -24 -7 0 -5 13 -8 28
-8 29 0 62 20 62 36 0 14 -16 11 -30 -6z"/>
<path d="M1602 830 c-12 -5 -27 -21 -32 -35 -18 -47 -12 -77 22 -107 36 -32
46 -33 92 -14 65 27 63 116 -3 150 -34 18 -46 19 -79 6z"/>
<path d="M2070 801 c0 -6 5 -13 10 -16 6 -3 10 1 10 9 0 9 -4 16 -10 16 -5 0
-10 -4 -10 -9z"/>
<path d="M3224 786 c-10 -8 -16 -17 -13 -21 9 -8 59 16 53 26 -7 13 -17 11
-40 -5z"/>
<path d="M2504 709 c-3 -6 -2 -15 4 -21 13 -13 32 -2 32 18 0 16 -26 19 -36 3z"/>
</g>
</svg>
